<svg class="main-svg" xmlns="http://www.w3.org/2000/svg" xmlns:xlink="http://www.w3.org/1999/xlink" width="1500" height="800" style="" viewBox="0 0 1500 800"><rect x="0" y="0" width="1500" height="800" style="fill: rgb(255, 255, 255); fill-opacity: 1;"/><defs id="defs-0d33f3"><g class="clips"><clipPath id="clip0d33f3xyplot" class="plotclip"><rect width="1332.5910061242346" height="649.6030183727034"/></clipPath><clipPath class="axesclip" id="clip0d33f3x"><rect x="27.82894138232721" y="0" width="1332.5910061242346" height="800"/></clipPath><clipPath class="axesclip" id="clip0d33f3y"><rect x="0" y="42.21237970253719" width="1500" height="649.6030183727034"/></clipPath><clipPath class="axesclip" id="clip0d33f3xy"><rect x="27.82894138232721" y="42.21237970253719" width="1332.5910061242346" height="649.6030183727034"/></clipPath></g><g class="gradients"/></defs><g class="bglayer"/><g class="layer-below"><g class="imagelayer"/><g class="shapelayer"/></g><g class="cartesianlayer"><g class="subplot xy"><g class="layer-subplot"><g class="shapelayer"/><g class="imagelayer"/></g><g class="gridlayer"><g class="x"><path class="xgrid crisp" transform="translate(65.53894138232721,0)" d="M0,42.21237970253719v649.6030183727034" style="stroke: rgb(0, 0, 0); stroke-opacity: 0.1; stroke-width: 0.5px;"/><path class="xgrid crisp" transform="translate(78.11894138232721,0)" d="M0,42.21237970253719v649.6030183727034" style="stroke: rgb(0, 0, 0); stroke-opacity: 0.1; stroke-width: 0.5px;"/><path class="xgrid crisp" transform="translate(103.25894138232721,0)" d="M0,42.21237970253719v649.6030183727034" style="stroke: rgb(0, 0, 0); stroke-opacity: 0.1; stroke-width: 0.5px;"/><path class="xgrid crisp" transform="translate(115.8289413823272,0)" d="M0,42.21237970253719v649.6030183727034" style="stroke: rgb(0, 0, 0); stroke-opacity: 0.1; stroke-width: 0.5px;"/><path class="xgrid crisp" transform="translate(140.96894138232722,0)" d="M0,42.21237970253719v649.6030183727034" style="stroke: rgb(0, 0, 0); stroke-opacity: 0.1; stroke-width: 0.5px;"/><path class="xgrid crisp" transform="translate(153.5489413823272,0)" d="M0,42.21237970253719v649.6030183727034" style="stroke: rgb(0, 0, 0); stroke-opacity: 0.1; stroke-width: 0.5px;"/><path class="xgrid crisp" transform="translate(178.68894138232722,0)" d="M0,42.21237970253719v649.6030183727034" style="stroke: rgb(0, 0, 0); stroke-opacity: 0.1; stroke-width: 0.5px;"/><path class="xgrid crisp" transform="translate(191.2589413823272,0)" d="M0,42.21237970253719v649.6030183727034" style="stroke: rgb(0, 0, 0); stroke-opacity: 0.1; stroke-width: 0.5px;"/><path class="xgrid crisp" transform="translate(203.8289413823272,0)" d="M0,42.21237970253719v649.6030183727034" style="stroke: rgb(0, 0, 0); stroke-opacity: 0.1; stroke-width: 0.5px;"/><path class="xgrid crisp" transform="translate(279.25894138232724,0)" d="M0,42.21237970253719v649.6030183727034" style="stroke: rgb(0, 0, 0); stroke-opacity: 0.1; stroke-width: 0.5px;"/><path class="xgrid crisp" transform="translate(291.82894138232723,0)" d="M0,42.21237970253719v649.6030183727034" style="stroke: rgb(0, 0, 0); stroke-opacity: 0.1; stroke-width: 0.5px;"/><path class="xgrid crisp" transform="translate(304.4089413823272,0)" d="M0,42.21237970253719v649.6030183727034" style="stroke: rgb(0, 0, 0); stroke-opacity: 0.1; stroke-width: 0.5px;"/><path class="xgrid crisp" transform="translate(316.9789413823272,0)" d="M0,42.21237970253719v649.6030183727034" style="stroke: rgb(0, 0, 0); stroke-opacity: 0.1; stroke-width: 0.5px;"/><path class="xgrid crisp" transform="translate(329.54894138232726,0)" d="M0,42.21237970253719v649.6030183727034" style="stroke: rgb(0, 0, 0); stroke-opacity: 0.1; stroke-width: 0.5px;"/><path class="xgrid crisp" transform="translate(367.25894138232724,0)" d="M0,42.21237970253719v649.6030183727034" style="stroke: rgb(0, 0, 0); stroke-opacity: 0.1; stroke-width: 0.5px;"/><path class="xgrid crisp" transform="translate(379.8389413823272,0)" d="M0,42.21237970253719v649.6030183727034" style="stroke: rgb(0, 0, 0); stroke-opacity: 0.1; stroke-width: 0.5px;"/><path class="xgrid crisp" transform="translate(392.4089413823272,0)" d="M0,42.21237970253719v649.6030183727034" style="stroke: rgb(0, 0, 0); stroke-opacity: 0.1; stroke-width: 0.5px;"/><path class="xgrid crisp" transform="translate(404.9789413823272,0)" d="M0,42.21237970253719v649.6030183727034" style="stroke: rgb(0, 0, 0); stroke-opacity: 0.1; stroke-width: 0.5px;"/><path class="xgrid crisp" transform="translate(442.68894138232724,0)" d="M0,42.21237970253719v649.6030183727034" style="stroke: rgb(0, 0, 0); stroke-opacity: 0.1; stroke-width: 0.5px;"/><path class="xgrid crisp" transform="translate(455.25894138232724,0)" d="M0,42.21237970253719v649.6030183727034" style="stroke: rgb(0, 0, 0); stroke-opacity: 0.1; stroke-width: 0.5px;"/><path class="xgrid crisp" transform="translate(467.8389413823272,0)" d="M0,42.21237970253719v649.6030183727034" style="stroke: rgb(0, 0, 0); stroke-opacity: 0.1; stroke-width: 0.5px;"/><path class="xgrid crisp" transform="translate(480.4089413823272,0)" d="M0,42.21237970253719v649.6030183727034" style="stroke: rgb(0, 0, 0); stroke-opacity: 0.1; stroke-width: 0.5px;"/><path class="xgrid crisp" transform="translate(492.9789413823272,0)" d="M0,42.21237970253719v649.6030183727034" style="stroke: rgb(0, 0, 0); stroke-opacity: 0.1; stroke-width: 0.5px;"/><path class="xgrid crisp" transform="translate(505.54894138232726,0)" d="M0,42.21237970253719v649.6030183727034" style="stroke: rgb(0, 0, 0); stroke-opacity: 0.1; stroke-width: 0.5px;"/><path class="xgrid crisp" transform="translate(518.1189413823272,0)" d="M0,42.21237970253719v649.6030183727034" style="stroke: rgb(0, 0, 0); stroke-opacity: 0.1; stroke-width: 0.5px;"/><path class="xgrid crisp" transform="translate(530.6889413823272,0)" d="M0,42.21237970253719v649.6030183727034" style="stroke: rgb(0, 0, 0); stroke-opacity: 0.1; stroke-width: 0.5px;"/><path class="xgrid crisp" transform="translate(543.2689413823273,0)" d="M0,42.21237970253719v649.6030183727034" style="stroke: rgb(0, 0, 0); stroke-opacity: 0.1; stroke-width: 0.5px;"/><path class="xgrid crisp" transform="translate(555.8389413823272,0)" d="M0,42.21237970253719v649.6030183727034" style="stroke: rgb(0, 0, 0); stroke-opacity: 0.1; stroke-width: 0.5px;"/><path class="xgrid crisp" transform="translate(580.9789413823272,0)" d="M0,42.21237970253719v649.6030183727034" style="stroke: rgb(0, 0, 0); stroke-opacity: 0.1; stroke-width: 0.5px;"/><path class="xgrid crisp" transform="translate(593.5489413823273,0)" d="M0,42.21237970253719v649.6030183727034" style="stroke: rgb(0, 0, 0); stroke-opacity: 0.1; stroke-width: 0.5px;"/><path class="xgrid crisp" transform="translate(606.1189413823272,0)" d="M0,42.21237970253719v649.6030183727034" style="stroke: rgb(0, 0, 0); stroke-opacity: 0.1; stroke-width: 0.5px;"/><path class="xgrid crisp" transform="translate(618.6989413823272,0)" d="M0,42.21237970253719v649.6030183727034" style="stroke: rgb(0, 0, 0); stroke-opacity: 0.1; stroke-width: 0.5px;"/><path class="xgrid crisp" transform="translate(631.2689413823273,0)" d="M0,42.21237970253719v649.6030183727034" style="stroke: rgb(0, 0, 0); stroke-opacity: 0.1; stroke-width: 0.5px;"/><path class="xgrid crisp" transform="translate(643.8389413823272,0)" d="M0,42.21237970253719v649.6030183727034" style="stroke: rgb(0, 0, 0); stroke-opacity: 0.1; stroke-width: 0.5px;"/><path class="xgrid crisp" transform="translate(656.4089413823273,0)" d="M0,42.21237970253719v649.6030183727034" style="stroke: rgb(0, 0, 0); stroke-opacity: 0.1; stroke-width: 0.5px;"/><path class="xgrid crisp" transform="translate(681.5489413823273,0)" d="M0,42.21237970253719v649.6030183727034" style="stroke: rgb(0, 0, 0); stroke-opacity: 0.1; stroke-width: 0.5px;"/><path class="xgrid crisp" transform="translate(694.1289413823272,0)" d="M0,42.21237970253719v649.6030183727034" style="stroke: rgb(0, 0, 0); stroke-opacity: 0.1; stroke-width: 0.5px;"/><path class="xgrid crisp" transform="translate(706.6989413823272,0)" d="M0,42.21237970253719v649.6030183727034" style="stroke: rgb(0, 0, 0); stroke-opacity: 0.1; stroke-width: 0.5px;"/><path class="xgrid crisp" transform="translate(719.2689413823273,0)" d="M0,42.21237970253719v649.6030183727034" style="stroke: rgb(0, 0, 0); stroke-opacity: 0.1; stroke-width: 0.5px;"/><path class="xgrid crisp" transform="translate(731.8389413823272,0)" d="M0,42.21237970253719v649.6030183727034" style="stroke: rgb(0, 0, 0); stroke-opacity: 0.1; stroke-width: 0.5px;"/><path class="xgrid crisp" transform="translate(744.4089413823273,0)" d="M0,42.21237970253719v649.6030183727034" style="stroke: rgb(0, 0, 0); stroke-opacity: 0.1; stroke-width: 0.5px;"/><path class="xgrid crisp" transform="translate(756.9789413823272,0)" d="M0,42.21237970253719v649.6030183727034" style="stroke: rgb(0, 0, 0); stroke-opacity: 0.1; stroke-width: 0.5px;"/><path class="xgrid crisp" transform="translate(769.5589413823272,0)" d="M0,42.21237970253719v649.6030183727034" style="stroke: rgb(0, 0, 0); stroke-opacity: 0.1; stroke-width: 0.5px;"/><path class="xgrid crisp" transform="translate(782.1289413823272,0)" d="M0,42.21237970253719v649.6030183727034" style="stroke: rgb(0, 0, 0); stroke-opacity: 0.1; stroke-width: 0.5px;"/><path class="xgrid crisp" transform="translate(794.6989413823272,0)" d="M0,42.21237970253719v649.6030183727034" style="stroke: rgb(0, 0, 0); stroke-opacity: 0.1; stroke-width: 0.5px;"/><path class="xgrid crisp" transform="translate(807.2689413823273,0)" d="M0,42.21237970253719v649.6030183727034" style="stroke: rgb(0, 0, 0); stroke-opacity: 0.1; stroke-width: 0.5px;"/><path class="xgrid crisp" transform="translate(819.8389413823272,0)" d="M0,42.21237970253719v649.6030183727034" style="stroke: rgb(0, 0, 0); stroke-opacity: 0.1; stroke-width: 0.5px;"/><path class="xgrid crisp" transform="translate(832.4089413823273,0)" d="M0,42.21237970253719v649.6030183727034" style="stroke: rgb(0, 0, 0); stroke-opacity: 0.1; stroke-width: 0.5px;"/><path class="xgrid crisp" transform="translate(844.9789413823272,0)" d="M0,42.21237970253719v649.6030183727034" style="stroke: rgb(0, 0, 0); stroke-opacity: 0.1; stroke-width: 0.5px;"/><path class="xgrid crisp" transform="translate(857.5589413823272,0)" d="M0,42.21237970253719v649.6030183727034" style="stroke: rgb(0, 0, 0); stroke-opacity: 0.1; stroke-width: 0.5px;"/><path class="xgrid crisp" transform="translate(870.1289413823272,0)" d="M0,42.21237970253719v649.6030183727034" style="stroke: rgb(0, 0, 0); stroke-opacity: 0.1; stroke-width: 0.5px;"/><path class="xgrid crisp" transform="translate(882.6989413823272,0)" d="M0,42.21237970253719v649.6030183727034" style="stroke: rgb(0, 0, 0); stroke-opacity: 0.1; stroke-width: 0.5px;"/><path class="xgrid crisp" transform="translate(895.2689413823273,0)" d="M0,42.21237970253719v649.6030183727034" style="stroke: rgb(0, 0, 0); stroke-opacity: 0.1; stroke-width: 0.5px;"/><path class="xgrid crisp" transform="translate(907.8389413823272,0)" d="M0,42.21237970253719v649.6030183727034" style="stroke: rgb(0, 0, 0); stroke-opacity: 0.1; stroke-width: 0.5px;"/><path class="xgrid crisp" transform="translate(920.4089413823273,0)" d="M0,42.21237970253719v649.6030183727034" style="stroke: rgb(0, 0, 0); stroke-opacity: 0.1; stroke-width: 0.5px;"/><path class="xgrid crisp" transform="translate(932.9889413823272,0)" d="M0,42.21237970253719v649.6030183727034" style="stroke: rgb(0, 0, 0); stroke-opacity: 0.1; stroke-width: 0.5px;"/><path class="xgrid crisp" transform="translate(945.5589413823272,0)" d="M0,42.21237970253719v649.6030183727034" style="stroke: rgb(0, 0, 0); stroke-opacity: 0.1; stroke-width: 0.5px;"/><path class="xgrid crisp" transform="translate(958.1289413823272,0)" d="M0,42.21237970253719v649.6030183727034" style="stroke: rgb(0, 0, 0); stroke-opacity: 0.1; stroke-width: 0.5px;"/><path class="xgrid crisp" transform="translate(970.6989413823272,0)" d="M0,42.21237970253719v649.6030183727034" style="stroke: rgb(0, 0, 0); stroke-opacity: 0.1; stroke-width: 0.5px;"/><path class="xgrid crisp" transform="translate(983.2689413823273,0)" d="M0,42.21237970253719v649.6030183727034" style="stroke: rgb(0, 0, 0); stroke-opacity: 0.1; stroke-width: 0.5px;"/><path class="xgrid crisp" transform="translate(995.8389413823272,0)" d="M0,42.21237970253719v649.6030183727034" style="stroke: rgb(0, 0, 0); stroke-opacity: 0.1; stroke-width: 0.5px;"/><path class="xgrid crisp" transform="translate(1008.4189413823273,0)" d="M0,42.21237970253719v649.6030183727034" style="stroke: rgb(0, 0, 0); stroke-opacity: 0.1; stroke-width: 0.5px;"/><path class="xgrid crisp" transform="translate(1020.9889413823272,0)" d="M0,42.21237970253719v649.6030183727034" style="stroke: rgb(0, 0, 0); stroke-opacity: 0.1; stroke-width: 0.5px;"/><path class="xgrid crisp" transform="translate(1033.5589413823272,0)" d="M0,42.21237970253719v649.6030183727034" style="stroke: rgb(0, 0, 0); stroke-opacity: 0.1; stroke-width: 0.5px;"/><path class="xgrid crisp" transform="translate(1046.1289413823272,0)" d="M0,42.21237970253719v649.6030183727034" style="stroke: rgb(0, 0, 0); stroke-opacity: 0.1; stroke-width: 0.5px;"/><path class="xgrid crisp" transform="translate(1058.6989413823271,0)" d="M0,42.21237970253719v649.6030183727034" style="stroke: rgb(0, 0, 0); stroke-opacity: 0.1; stroke-width: 0.5px;"/><path class="xgrid crisp" transform="translate(1071.2689413823273,0)" d="M0,42.21237970253719v649.6030183727034" style="stroke: rgb(0, 0, 0); stroke-opacity: 0.1; stroke-width: 0.5px;"/><path class="xgrid crisp" transform="translate(1083.8489413823272,0)" d="M0,42.21237970253719v649.6030183727034" style="stroke: rgb(0, 0, 0); stroke-opacity: 0.1; stroke-width: 0.5px;"/><path class="xgrid crisp" transform="translate(1108.9889413823273,0)" d="M0,42.21237970253719v649.6030183727034" style="stroke: rgb(0, 0, 0); stroke-opacity: 0.1; stroke-width: 0.5px;"/><path class="xgrid crisp" transform="translate(1121.5589413823272,0)" d="M0,42.21237970253719v649.6030183727034" style="stroke: rgb(0, 0, 0); stroke-opacity: 0.1; stroke-width: 0.5px;"/><path class="xgrid crisp" transform="translate(1134.1289413823272,0)" d="M0,42.21237970253719v649.6030183727034" style="stroke: rgb(0, 0, 0); stroke-opacity: 0.1; stroke-width: 0.5px;"/><path class="xgrid crisp" transform="translate(1146.6989413823271,0)" d="M0,42.21237970253719v649.6030183727034" style="stroke: rgb(0, 0, 0); stroke-opacity: 0.1; stroke-width: 0.5px;"/><path class="xgrid crisp" transform="translate(1159.2789413823273,0)" d="M0,42.21237970253719v649.6030183727034" style="stroke: rgb(0, 0, 0); stroke-opacity: 0.1; stroke-width: 0.5px;"/><path class="xgrid crisp" transform="translate(1171.8489413823272,0)" d="M0,42.21237970253719v649.6030183727034" style="stroke: rgb(0, 0, 0); stroke-opacity: 0.1; stroke-width: 0.5px;"/><path class="xgrid crisp" transform="translate(1184.4189413823271,0)" d="M0,42.21237970253719v649.6030183727034" style="stroke: rgb(0, 0, 0); stroke-opacity: 0.1; stroke-width: 0.5px;"/><path class="xgrid crisp" transform="translate(1196.9889413823273,0)" d="M0,42.21237970253719v649.6030183727034" style="stroke: rgb(0, 0, 0); stroke-opacity: 0.1; stroke-width: 0.5px;"/><path class="xgrid crisp" transform="translate(1209.5589413823272,0)" d="M0,42.21237970253719v649.6030183727034" style="stroke: rgb(0, 0, 0); stroke-opacity: 0.1; stroke-width: 0.5px;"/><path class="xgrid crisp" transform="translate(1222.1289413823272,0)" d="M0,42.21237970253719v649.6030183727034" style="stroke: rgb(0, 0, 0); stroke-opacity: 0.1; stroke-width: 0.5px;"/><path class="xgrid crisp" transform="translate(1234.6989413823271,0)" d="M0,42.21237970253719v649.6030183727034" style="stroke: rgb(0, 0, 0); stroke-opacity: 0.1; stroke-width: 0.5px;"/><path class="xgrid crisp" transform="translate(1247.2789413823273,0)" d="M0,42.21237970253719v649.6030183727034" style="stroke: rgb(0, 0, 0); stroke-opacity: 0.1; stroke-width: 0.5px;"/><path class="xgrid crisp" transform="translate(1272.4189413823271,0)" d="M0,42.21237970253719v649.6030183727034" style="stroke: rgb(0, 0, 0); stroke-opacity: 0.1; stroke-width: 0.5px;"/><path class="xgrid crisp" transform="translate(1284.9889413823273,0)" d="M0,42.21237970253719v649.6030183727034" style="stroke: rgb(0, 0, 0); stroke-opacity: 0.1; stroke-width: 0.5px;"/><path class="xgrid crisp" transform="translate(1297.5589413823272,0)" d="M0,42.21237970253719v649.6030183727034" style="stroke: rgb(0, 0, 0); stroke-opacity: 0.1; stroke-width: 0.5px;"/><path class="xgrid crisp" transform="translate(1310.1289413823272,0)" d="M0,42.21237970253719v649.6030183727034" style="stroke: rgb(0, 0, 0); stroke-opacity: 0.1; stroke-width: 0.5px;"/><path class="xgrid crisp" transform="translate(1322.7089413823273,0)" d="M0,42.21237970253719v649.6030183727034" style="stroke: rgb(0, 0, 0); stroke-opacity: 0.1; stroke-width: 0.5px;"/></g><g class="y"><path class="ygrid crisp" transform="translate(0,619.9023797025372)" d="M27.82894138232721,0h1332.5910061242346" style="stroke: rgb(0, 0, 0); stroke-opacity: 0.1; stroke-width: 0.5px;"/><path class="ygrid crisp" transform="translate(0,477.17237970253717)" d="M27.82894138232721,0h1332.5910061242346" style="stroke: rgb(0, 0, 0); stroke-opacity: 0.1; stroke-width: 0.5px;"/><path class="ygrid crisp" transform="translate(0,334.4323797025372)" d="M27.82894138232721,0h1332.5910061242346" style="stroke: rgb(0, 0, 0); stroke-opacity: 0.1; stroke-width: 0.5px;"/><path class="ygrid crisp" transform="translate(0,191.7023797025372)" d="M27.82894138232721,0h1332.5910061242346" style="stroke: rgb(0, 0, 0); stroke-opacity: 0.1; stroke-width: 0.5px;"/><path class="ygrid crisp" transform="translate(0,48.96237970253719)" d="M27.82894138232721,0h1332.5910061242346" style="stroke: rgb(0, 0, 0); stroke-opacity: 0.1; stroke-width: 0.5px;"/></g></g><g class="zerolinelayer"/><path class="xlines-below"/><path class="ylines-below"/><g class="overlines-below"/><g class="xaxislayer-below"/><g class="yaxislayer-below"/><g class="overaxes-below"/><g class="plot" transform="translate(27.82894138232721, 42.21237970253719)" clip-path="url('#clip0d33f3xyplot')"><g class="scatterlayer mlayer"><g class="trace scatter tracefe93b4" style="stroke-miterlimit: 2; opacity: 1;"><g class="fills"/><g class="errorbars"/><g class="lines"><path class="js-line" d="M37.71,258.11L50.29,256.25L75.43,253.54L88,259.25L113.14,267.74L125.72,261.53L150.86,261.75L163.43,255.11L176,252.33L251.43,235.77L264,248.9L276.58,252.97L289.15,239.12L301.72,235.27L339.43,202.09L352.01,188.1L364.58,167.61L377.15,180.75L414.86,162.98L427.43,160.26L440.01,145.63L452.58,148.49L465.15,143.71L477.72,137.35L490.29,124.37L502.86,126.22L515.44,122.01L528.01,118.44L553.15,116.52L565.72,108.24L578.29,103.17L590.87,100.24L603.44,99.96L616.01,99.1L628.58,96.1L653.72,89.9L666.3,93.89L678.87,88.9L691.44,92.75L704.01,102.96L716.58,100.67L729.15,107.74L741.73,101.96L754.3,94.75L766.87,103.6L779.44,99.39L792.01,87.61L817.15,94.89L829.73,84.47L842.3,81.62L854.87,77.26L867.44,80.33L880.01,82.33L892.58,79.26L905.16,79.05L930.3,81.55L942.87,76.12L955.44,85.54L968.01,88.33L993.16,84.11L1005.73,84.69L1018.3,78.12L1030.87,82.62L1043.44,84.9L1056.02,91.04L1093.73,97.46L1106.3,93.68L1118.87,106.17L1131.45,106.17L1144.02,114.3L1156.59,120.8L1169.16,119.3L1181.73,114.02L1194.3,119.08L1206.87,121.51L1219.45,131.29L1244.59,124.58L1257.16,122.37L1269.73,126.94L1282.3,130.43L1294.88,132.29" style="vector-effect: non-scaling-stroke; fill: none; stroke: rgb(0, 154, 250); stroke-opacity: 1; stroke-width: 3px; opacity: 1;"/></g><g class="points"/><g class="text"/></g><g class="trace scatter tracefb4fb8" style="stroke-miterlimit: 2; opacity: 1;"><g class="fills"/><g class="errorbars"/><g class="lines"><path class="js-line" d="M37.71,363.59L50.29,363.59L75.43,414.55L88,516.53L113.14,465.57L125.72,516.53L150.86,414.55L163.43,414.55L176,465.57L251.43,465.57L264,414.55L289.15,312.63L301.72,363.59L339.43,159.69L352.01,159.69L364.58,108.74L377.15,300.64L414.86,143.99L427.43,116.52L452.58,116.52L465.15,154.41L477.72,105.17L490.29,105.17L502.86,140.57L515.44,95.96L553.15,296.65L565.72,318.99L578.29,318.99L590.87,296.65L603.44,73.69L616.01,153.7L628.58,48.72L653.72,122.51L666.3,64.63L678.87,42.44L691.44,73.12L704.01,38.44L716.58,21.31L729.15,21.31L741.73,50.43L754.3,35.87L766.87,21.31L779.44,68.84L792.01,53.28L804.58,22.24L817.15,99.82L829.73,146.42L842.3,99.82L854.87,99.82L867.44,68.84L880.01,89.75L892.58,156.12L905.16,139.5L917.73,156.12L930.3,156.12L942.87,89.75L955.44,89.75L968.01,139.5L980.59,172.75L993.16,139.5L1005.73,43.36L1018.3,25.02L1030.87,61.63L1043.44,113.8L1056.02,185.17L1081.16,167.33L1093.73,113.8L1106.3,113.8L1118.87,131.65L1131.45,131.65L1144.02,185.17L1156.59,238.7L1169.16,149.49L1181.73,185.17L1194.3,185.17L1206.87,238.7L1219.45,220.85L1244.59,149.49L1257.16,131.65L1269.73,131.65L1282.3,167.33L1294.88,131.65" style="vector-effect: non-scaling-stroke; fill: none; stroke: rgb(227, 111, 71); stroke-opacity: 1; stroke-width: 3px; opacity: 1;"/></g><g class="points"/><g class="text"/></g><g class="trace scatter trace173e29" style="stroke-miterlimit: 2; opacity: 1;"><g class="fills"/><g class="errorbars"/><g class="lines"><path class="js-line" d="M37.71,301.5L50.29,286.01L75.43,212.93L88,165.33L113.14,177.39L125.72,173.75L150.86,248.69L163.43,201.37L176,166.69L251.43,83.61L264,110.38L276.58,132.72L289.15,143.99L301.72,143.99L339.43,125.72L352.01,125.72L364.58,108.74L377.15,83.19L414.86,109.81L427.43,101.89L440.01,102.38L452.58,146.56L465.15,117.09L477.72,136.5L490.29,107.67L502.86,107.67L515.44,122.08L528.01,100.46L553.15,101.46L565.72,94.39L578.29,116.09L590.87,84.69L603.44,137.07L616.01,123.51L628.58,128.93L653.72,83.9L666.3,122.51L678.87,116.09L691.44,148.27L704.01,148.27L716.58,142.14L729.15,72.84L741.73,119.08L754.3,85.33L766.87,98.25L779.44,83.4L792.01,95.25L804.58,87.25L817.15,112.95L829.73,101.1L842.3,42.15L854.87,36.23L867.44,71.63L880.01,95.25L892.58,42.15L905.16,48.07L917.73,59.42L930.3,53.14L942.87,58.56L955.44,41.29L968.01,58.56L980.59,35.51L993.16,47.07L1005.73,52.78L1018.3,29.8L1043.44,18.38L1056.02,41.29L1081.16,62.06L1093.73,23.38L1106.3,34.44L1118.87,61.21L1131.45,77.05L1144.02,109.45L1156.59,109.45L1169.16,114.87L1181.73,71.63L1194.3,98.67L1206.87,77.05L1219.45,77.05L1244.59,51.36L1257.16,68.06L1269.73,75.26L1282.3,94.61L1294.88,66.7" style="vector-effect: non-scaling-stroke; fill: none; stroke: rgb(62, 164, 78); stroke-opacity: 1; stroke-width: 3px; opacity: 1;"/></g><g class="points"/><g class="text"/></g><g class="trace scatter traced765d6" style="stroke-miterlimit: 2; opacity: 1;"><g class="fills"/><g class="errorbars"/><g class="lines"><path class="js-line" d="M37.71,363.59L50.29,465.57L75.43,363.59L88,363.59L113.14,414.55L125.72,414.55L150.86,363.59L163.43,414.55L176,363.59L251.43,159.69L264,108.74L289.15,108.74L301.72,210.65L339.43,399.27L352.01,292.22L364.58,220.85L377.15,363.59L414.86,403.27L427.43,429.68L440.01,333.83L452.58,304.14L465.15,363.59L477.72,363.59L490.29,363.59L502.86,333.83L515.44,304.14L528.01,363.59L553.15,393.35L565.72,393.35L578.29,333.83L590.87,363.59L603.44,333.83L616.01,423.04L628.58,482.56L653.72,423.04L666.3,452.8L678.87,423.04L691.44,452.8L704.01,512.25L716.58,333.83L729.15,363.59L741.73,333.83L754.3,363.59L766.87,363.59L779.44,304.14L792.01,244.62L804.58,244.62L817.15,304.14L829.73,244.62L842.3,304.14L854.87,333.83L867.44,244.62L880.01,274.38L892.58,244.62L905.16,244.62L917.73,274.38L930.3,214.93L942.87,244.62L955.44,201.37L968.01,244.62L980.59,271.1L1005.73,218.21L1018.3,218.21L1030.87,271.1L1043.44,218.21L1056.02,271.1L1081.16,297.5L1093.73,244.62L1106.3,271.1L1118.87,244.62L1131.45,323.91L1156.59,323.91L1169.16,253.83L1181.73,263.68L1194.3,333.83L1206.87,336.11L1219.45,297.5L1244.59,165.33L1257.16,112.45L1269.73,86.04L1282.3,191.81L1294.88,138.92" style="vector-effect: non-scaling-stroke; fill: none; stroke: rgb(195, 113, 210); stroke-opacity: 1; stroke-width: 3px; opacity: 1;"/></g><g class="points"/><g class="text"/></g><g class="trace scatter trace44460b" style="stroke-miterlimit: 2; opacity: 1;"><g class="fills"/><g class="errorbars"/><g class="lines"><path class="js-line" d="M37.71,302.07L50.29,351.31L75.43,302.07L88,228.21L113.14,284.3L150.86,284.3L163.43,343.75L176,403.27L251.43,334.69L264,334.69L276.58,392.49L289.15,238.2L301.72,334.69L339.43,257.54L352.01,336.11L364.58,244.62L377.15,317.84L414.86,276.38L427.43,153.13L440.01,153.13L452.58,262.96L465.15,171.47L477.72,189.74L490.29,153.13L502.86,226.35L515.44,189.74L528.01,208.08L553.15,262.96L565.72,226.35L578.29,226.35L590.87,244.62L603.44,189.74L616.01,113.8L628.58,185.17L653.72,238.7L666.3,180.82L678.87,215.64L691.44,250.47L704.01,312.63L716.58,227.63L729.15,193.66L741.73,278.66L754.3,261.61L766.87,210.65L779.44,227.63L792.01,261.61L804.58,142.71L817.15,125.72L829.73,128.58L842.3,159.69L854.87,176.68L867.44,142.71L880.01,91.68L892.58,91.68L905.16,57.71L917.73,125.72L930.3,108.74L942.87,23.74L955.44,106.31L968.01,146.42L980.59,161.91L1005.73,161.91L1018.3,115.37L1030.87,146.42L1043.44,121.44L1056.02,146.92L1081.16,185.17L1093.73,137.57L1106.3,113.8L1118.87,123.51L1131.45,101.89L1144.02,90.04L1156.59,173.25L1169.16,161.41L1181.73,208.94L1194.3,220.85L1206.87,197.09L1244.59,197.09L1257.16,125.72L1282.3,78.12L1294.88,90.04" style="vector-effect: non-scaling-stroke; fill: none; stroke: rgb(172, 142, 24); stroke-opacity: 1; stroke-width: 3px; opacity: 1;"/></g><g class="points"/><g class="text"/></g><g class="trace scatter trace0ce5c2" style="stroke-miterlimit: 2; opacity: 1;"><g class="fills"/><g class="errorbars"/><g class="lines"><path class="js-line" d="M37.71,252.11L50.29,256.54L75.43,253.61L113.14,235.7L125.72,231.2L150.86,250.9L163.43,233.63L176,228.92L251.43,259.68L264,295.86L276.58,336.47L289.15,309.42L301.72,291.29L339.43,279.52L352.01,219.07L364.58,235.49L377.15,230.92L414.86,181.53L427.43,203.44L440.01,208.72L452.58,219.07L465.15,215.86L477.72,198.59L490.29,230.35L502.86,195.02L515.44,186.24L528.01,164.4L565.72,112.8L578.29,116.87L590.87,118.37L603.44,110.45L616.01,102.17L628.58,110.38L653.72,104.38L666.3,107.67L678.87,79.83L691.44,90.11L704.01,113.95L716.58,117.59L729.15,135L741.73,132.86L754.3,57.21L766.87,117.59L779.44,107.31L792.01,104.24L804.58,107.81L817.15,92.75L829.73,76.55L842.3,89.25L854.87,91.25L867.44,88.82L892.58,100.24L905.16,110.95L917.73,129.93L930.3,132.5L942.87,110.02L955.44,136.5L968.01,154.41L980.59,131.79L993.16,97.89L1005.73,93.32L1018.3,81.4L1030.87,81.69L1043.44,96.32L1056.02,144.21L1081.16,109.09L1093.73,135.43L1106.3,106.6L1118.87,138.57L1131.45,130L1144.02,102.53L1156.59,121.58L1169.16,109.52L1181.73,109.95L1194.3,118.09L1206.87,95.6L1219.45,120.51L1244.59,137.57L1257.16,96.32L1269.73,131L1282.3,130L1294.88,126.22" style="vector-effect: non-scaling-stroke; fill: none; stroke: rgb(0, 170, 174); stroke-opacity: 1; stroke-width: 3px; opacity: 1;"/></g><g class="points"/><g class="text"/></g><g class="trace scatter traceb3231e" style="stroke-miterlimit: 2; opacity: 1;"><g class="fills"/><g class="errorbars"/><g class="lines"><path class="js-line" d="M37.71,280.3L50.29,322.62L75.43,299.22L88,275.81L113.14,411.55L125.72,283.73L150.86,294.36L163.43,358.24L176,336.97L251.43,241.27L264,294.36L276.58,292.22L289.15,353.38L301.72,312.63L339.43,282.02L352.01,273.02L364.58,219.78L377.15,219.78L414.86,231.06L427.43,269.1L440.01,193.38L465.15,187.81L477.72,167.61L490.29,117.3L502.86,84.97L515.44,104.53L528.01,115.8L553.15,159.69L565.72,73.12L578.29,114.87L590.87,101.46L603.44,123.3L616.01,136.5L628.58,108.74L653.72,99.82L666.3,82.69L678.87,100.46L691.44,97.75L704.01,48.36L716.58,50L729.15,57.21L741.73,35.87L754.3,74.69L766.87,93.46L779.44,93.46L792.01,46L804.58,83.19L817.15,92.89L829.73,74.41L842.3,30.52L854.87,43.36L867.44,63.85L880.01,78.12L892.58,83.04L905.16,104.81L917.73,83.04L930.3,88.47L942.87,67.13L955.44,110.24L968.01,143.99L980.59,110.24L993.16,83.04L1005.73,88.47L1018.3,61.21L1030.87,67.13L1043.44,72.62L1056.02,68.06L1081.16,88.47L1093.73,87.83L1106.3,95.25L1118.87,117.37L1131.45,142.92L1144.02,128.43L1156.59,115.73L1169.16,77.55L1181.73,78.69L1194.3,94.61L1206.87,134.57L1219.45,145.21L1244.59,173.11L1257.16,139.92L1269.73,135.57L1282.3,127.51L1294.88,138.5" style="vector-effect: non-scaling-stroke; fill: none; stroke: rgb(237, 94, 147); stroke-opacity: 1; stroke-width: 3px; opacity: 1;"/></g><g class="points"/><g class="text"/></g><g class="trace scatter tracedf32fa" style="stroke-miterlimit: 2; opacity: 1;"><g class="fills"/><g class="errorbars"/><g class="lines"><path class="js-line" d="M37.71,314.63L50.29,286.66L75.43,272.6L88,314.63L113.14,342.61L125.72,300.64L150.86,314.63L163.43,300.64L176,272.6L251.43,230.63L264,244.62L276.58,272.6L289.15,258.61L301.72,300.64L339.43,328.62L352.01,328.62L364.58,314.63L377.15,272.6L414.86,363.59L427.43,398.56L440.01,272.6L452.58,230.63L465.15,258.61L477.72,467.64L490.29,286.66L502.86,328.62L515.44,272.6L528.01,230.63L553.15,120.94L565.72,120.94L578.29,123.51L590.87,79.55L603.44,146.92L616.01,121.44L628.58,70.48L653.72,144.49L666.3,106.95L678.87,108.74L691.44,55.14L704.01,42.44L716.58,52.78L729.15,50L741.73,137.43L754.3,67.91L766.87,67.06L779.44,107.24L792.01,84.97L804.58,153.41L817.15,140L829.73,45.86L842.3,55.64L854.87,120.94L867.44,49.22L880.01,89.11L892.58,89.11L905.16,153.13L917.73,98.25L930.3,89.11L942.87,119.87L955.44,140.57L968.01,163.4L980.59,151.06L993.16,155.77L1005.73,163.62L1018.3,86.97L1030.87,171.47L1043.44,175.18L1056.02,143.06L1081.16,207.22L1093.73,144.63L1106.3,105.17L1118.87,144.63L1131.45,160.83L1144.02,209.51L1156.59,175.18L1169.16,231.27L1181.73,127.01L1194.3,183.39L1206.87,148.06L1219.45,176.32L1244.59,130.57L1257.16,146.56L1269.73,232.84L1282.3,105.67L1294.88,133.93" style="vector-effect: non-scaling-stroke; fill: none; stroke: rgb(198, 130, 37); stroke-opacity: 1; stroke-width: 3px; opacity: 1;"/></g><g class="points"/><g class="text"/></g><g class="trace scatter trace1f6e5b" style="stroke-miterlimit: 2; opacity: 1;"><g class="fills"/><g class="errorbars"/><g class="lines"><path class="js-line" d="M37.71,193.24L50.29,232.13L75.43,288.44L88,357.52L113.14,333.33L125.72,340.54L150.86,369.37L163.43,328.48L176,337.04L251.43,333.83L264,351.67L276.58,357.67L289.15,369.51L301.72,336.68L339.43,351.53L352.01,321.98L364.58,357.67L377.15,321.27L414.86,366.37L427.43,371.87L440.01,388.5L452.58,398.49L465.15,405.05L477.72,352.46L490.29,371.87L502.86,355.31L515.44,310.21L528.01,349.53L553.15,311.13L565.72,329.26L578.29,321.63L590.87,329.26L603.44,263.46L616.01,301.5L628.58,288.08L653.72,222.42L666.3,249.83L678.87,222.42L691.44,217.5L704.01,263.82L716.58,238.7L729.15,238.7L741.73,259.39L754.3,246.12L766.87,229.78L779.44,203.01L792.01,186.24L804.58,206.94L817.15,206.94L829.73,202.58L842.3,211.29L854.87,202.58L867.44,228.71L880.01,215.64L892.58,206.94L905.16,180.82L917.73,179.75L930.3,162.48L942.87,184.1L955.44,191.59L968.01,164.9L980.59,179.75L993.16,192.74L1005.73,166.76L1018.3,147.77L1030.87,165.83L1043.44,175.46L1056.02,177.68L1081.16,163.9L1093.73,181.96L1106.3,195.95L1118.87,203.3L1131.45,208.37L1144.02,188.17L1156.59,212.36L1169.16,228.49L1181.73,208.37L1194.3,220.43L1206.87,200.3L1219.45,252.68L1244.59,196.23L1257.16,205.01L1269.73,182.17L1282.3,178.18L1294.88,194.81" style="vector-effect: non-scaling-stroke; fill: none; stroke: rgb(0, 169, 141); stroke-opacity: 1; stroke-width: 3px; opacity: 1;"/></g><g class="points"/><g class="text"/></g><g class="trace scatter trace4794d0" style="stroke-miterlimit: 2; opacity: 1;"><g class="fills"/><g class="errorbars"/><g class="lines"><path class="js-line" d="M37.71,138.64L50.29,142.35L75.43,254.97L88,159.69L113.14,258.18L125.72,230.85L150.86,231.7L163.43,239.12L176,187.31L251.43,312.63L264,304.14L276.58,312.63L289.15,295.65L301.72,281.87L339.43,197.73L352.01,187.67L364.58,227.92L377.15,216.64L414.86,203.3L427.43,304.14L440.01,212.08L452.58,207.79L465.15,200.44L477.72,241.27L490.29,227.14L502.86,223L515.44,269.1L528.01,230.42L553.15,218.64L565.72,273.02L578.29,230.42L590.87,204.37L603.44,252.11L616.01,309.49L628.58,300.64L653.72,251.76L666.3,225.49L678.87,240.91L691.44,285.51L704.01,315.63L716.58,273.02L729.15,312.63L741.73,265.32L754.3,299.57L766.87,296.36L779.44,237.63L792.01,287.87L804.58,216.64L817.15,237.34L829.73,190.95L842.3,182.46L854.87,129.43L867.44,187.81L880.01,198.52L892.58,174.04L905.16,115.59L917.73,129.79L930.3,91.39L942.87,88.68L955.44,136.5L968.01,94.61L980.59,147.35L993.16,160.48L1005.73,116.52L1018.3,81.33L1030.87,199.66L1043.44,185.17L1056.02,153.7L1081.16,167.9L1093.73,176.68L1106.3,190.95L1118.87,144.85L1131.45,168.97L1144.02,140.57L1156.59,131.36L1169.16,129.43L1181.73,106.95L1194.3,129.79L1206.87,179.75L1219.45,201.37L1244.59,140.57L1269.73,125.72L1282.3,177.18L1294.88,180.1" style="vector-effect: non-scaling-stroke; fill: none; stroke: rgb(142, 151, 30); stroke-opacity: 1; stroke-width: 3px; opacity: 1;"/></g><g class="points"/><g class="text"/></g><g class="trace scatter trace3df42d" style="stroke-miterlimit: 2; opacity: 1;"><g class="fills"/><g class="errorbars"/><g class="lines"><path class="js-line" d="M37.71,127.51L50.29,94.61L75.43,105.6L88,94.61L113.14,113.3L125.72,138.5L150.86,138.5L163.43,171.47L176,207.44L251.43,163.19L264,172.97L276.58,202.3L289.15,168.54L301.72,206.58L339.43,178.03L352.01,187.53L364.58,187.53L377.15,225.64L414.86,196.45L427.43,196.45L440.01,178.39L452.58,232.63L465.15,196.45L477.72,214.5L490.29,174.18L502.86,221.71L515.44,230.35L528.01,241.62L553.15,241.62L565.72,214.5L578.29,196.45L590.87,187.45L603.44,223.57L616.01,250.26L628.58,267.03L653.72,275.45L666.3,239.12L678.87,272.31L691.44,247.4L704.01,272.31L716.58,288.87L729.15,250.04L741.73,278.23L754.3,262.75L766.87,301.5L779.44,332.54L792.01,276.38L817.15,228.78L829.73,244.62L842.3,212.93L854.87,212.93L880.01,181.17L892.58,173.25L905.16,189.17L917.73,133.64L930.3,205.01L942.87,161.91L968.01,192.95L980.59,200.66L993.16,200.66L1005.73,239.48L1018.3,231.7L1030.87,231.7L1043.44,262.75L1056.02,247.26L1081.16,247.26L1093.73,286.01L1106.3,247.26L1118.87,249.69L1131.45,257.32L1144.02,219.36L1156.59,211.72L1169.16,269.67L1181.73,269.67L1194.3,239.62L1206.87,289.22L1219.45,237.63L1244.59,230.63L1257.16,239.91L1269.73,254.04L1282.3,246.98L1294.88,310.56" style="vector-effect: non-scaling-stroke; fill: none; stroke: rgb(0, 169, 204); stroke-opacity: 1; stroke-width: 3px; opacity: 1;"/></g><g class="points"/><g class="text"/></g><g class="trace scatter trace5c1ca9" style="stroke-miterlimit: 2; opacity: 1;"><g class="fills"/><g class="errorbars"/><g class="lines"><path class="js-line" d="M37.71,542.01L50.29,542.01L75.43,452.8L88,542.01L113.14,631.22L301.72,631.22L339.43,452.8L364.58,452.8L377.15,363.59L414.86,363.59L427.43,452.8L440.01,363.59L452.58,95.96L465.15,363.59L477.72,363.59L515.44,363.59L528.01,452.8L553.15,542.01L565.72,542.01L590.87,542.01L603.44,363.59L616.01,452.8L628.58,452.8L653.72,542.01L666.3,631.22L678.87,542.01L691.44,542.01L729.15,542.01L741.73,452.8L754.3,542.01L766.87,542.01L842.3,542.01L854.87,363.59L867.44,363.59L880.01,274.38L905.16,274.38L917.73,363.59L930.3,363.59L942.87,452.8L955.44,363.59L968.01,452.8L993.16,274.38L1005.73,274.38L1018.3,274.38L1030.87,95.96L1043.44,95.96L1056.02,185.17L1081.16,363.59L1093.73,363.59L1106.3,185.17L1118.87,452.8L1131.45,363.59L1144.02,452.8L1156.59,452.8L1169.16,363.59L1194.3,185.17L1206.87,363.59L1219.45,452.8L1244.59,363.59L1257.16,452.8L1269.73,274.38L1282.3,452.8L1294.88,542.01" style="vector-effect: non-scaling-stroke; fill: none; stroke: rgb(155, 127, 233); stroke-opacity: 1; stroke-width: 3px; opacity: 1;"/></g><g class="points"/><g class="text"/></g><g class="trace scatter trace4635e4" style="stroke-miterlimit: 2; opacity: 1;"><g class="fills"/><g class="errorbars"/><g class="lines"><path class="js-line" d="M37.71,203.01L50.29,189.74L75.43,281.23L88,153.13L113.14,134.86L125.72,98.25L150.86,116.52L163.43,208.08L176,190.24L251.43,108.74L264,129.08L276.58,190.24L289.15,190.24L301.72,169.9L339.43,136.5L352.01,169.9L364.58,251.47L377.15,271.81L414.86,271.81L427.43,292.22L440.01,332.97L452.58,312.63L465.15,27.16L477.72,232.13L490.29,250.9L502.86,231.06L515.44,353.38L528.01,292.22L553.15,292.22L565.72,271.81L578.29,292.22L590.87,292.22L603.44,271.81L616.01,179.75L628.58,287.87L653.72,244.62L666.3,244.62L678.87,179.75L691.44,201.37L704.01,244.62L716.58,274.38L729.15,252.11L741.73,274.38L754.3,229.78L766.87,252.11L779.44,252.11L792.01,363.59L804.58,452.8L817.15,490.2L829.73,430.53L842.3,363.59L854.87,283.02L867.44,329.05L880.01,306.07L892.58,398.13L905.16,259.96L917.73,236.98L930.3,236.98L942.87,213.93L968.01,121.87L980.59,271.81L1005.73,271.81L1018.3,292.22L1030.87,251.47L1043.44,251.47L1056.02,251.47L1081.16,332.97L1093.73,434.96L1106.3,414.55L1118.87,373.8L1131.45,244.62L1144.02,266.24L1156.59,374.44L1169.16,394.21L1181.73,373.8L1194.3,312.63L1206.87,312.63L1219.45,373.8L1244.59,394.21L1257.16,434.96L1269.73,536.94L1282.3,536.94L1294.88,373.8" style="vector-effect: non-scaling-stroke; fill: none; stroke: rgb(97, 141, 246); stroke-opacity: 1; stroke-width: 3px; opacity: 1;"/></g><g class="points"/><g class="text"/></g><g class="trace scatter tracec48fee" style="stroke-miterlimit: 2; opacity: 1;"><g class="fills"/><g class="errorbars"/><g class="lines"><path class="js-line" d="M37.71,268.17L50.29,265.89L75.43,245.98L88,264.82L113.14,261.32L125.72,261.82L150.86,247.55L163.43,230.85L176,230.42L251.43,201.8L264,210.15L276.58,199.52L289.15,184.67L301.72,175.68L339.43,134.93L352.01,124.65L364.58,82.69L377.15,108.81L414.86,76.98L427.43,60.28L440.01,58.35L452.58,60.71L465.15,67.91L477.72,47.36L490.29,39.22L502.86,46.5L515.44,42.44L528.01,37.08L553.15,42.08L565.72,37.23L578.29,28.02L590.87,30.09L603.44,37.01L616.01,29.52L628.58,23.52L653.72,23.17L666.3,31.8L678.87,31.45L691.44,35.3L716.58,46.93L729.15,60.21L741.73,41.65L754.3,44.01L766.87,51.07L779.44,45.36L792.01,33.73L804.58,37.3L817.15,43.08L829.73,36.16L842.3,39.3L854.87,32.02L867.44,37.23L880.01,37.73L892.58,35.58L905.16,40.65L930.3,46L942.87,42.72L955.44,47.5L968.01,44.65L980.59,39.08L993.16,42.79L1005.73,47.93L1018.3,48.29L1030.87,45.43L1043.44,46.36L1056.02,46.58L1081.16,48.93L1093.73,52.43L1106.3,54.43L1118.87,64.85L1131.45,63.06L1144.02,76.84L1156.59,80.12L1169.16,78.48L1181.73,81.33L1194.3,85.4L1206.87,88.4L1219.45,90.11L1244.59,88.9L1257.16,94.03L1269.73,91.47L1282.3,100.39L1294.88,102.96" style="vector-effect: non-scaling-stroke; fill: none; stroke: rgb(240, 96, 115); stroke-opacity: 1; stroke-width: 3px; opacity: 1;"/></g><g class="points"/><g class="text"/></g><g class="trace scatter traced0c7ea" style="stroke-miterlimit: 2; opacity: 1;"><g class="fills"/><g class="errorbars"/><g class="lines"><path class="js-line" d="M37.71,286.01L75.43,286.01L88,304.14L113.14,223.92L125.72,286.01L150.86,223.92L163.43,254.97L176,379.08L251.43,379.08L289.15,472.21L301.72,534.23L339.43,348.1L352.01,410.12L377.15,472.21L414.86,472.21L427.43,472.21L440.01,379.08L452.58,286.01L465.15,379.08L477.72,286.01L490.29,161.91L502.86,223.92L515.44,317.06L528.01,286.01L553.15,317.06L565.72,317.06L578.29,286.01L590.87,286.01L603.44,254.97L628.58,317.06L653.72,317.06L666.3,472.21L678.87,348.1L691.44,254.97L704.01,317.06L716.58,286.01L729.15,379.08L741.73,286.01L754.3,410.12L766.87,348.1L779.44,472.21L792.01,410.12L804.58,472.21L817.15,428.46L829.73,410.12L842.3,410.12L854.87,441.17L867.44,441.17L880.01,410.12L892.58,441.17L905.16,286.01L917.73,317.06L930.3,254.97L955.44,254.97L968.01,348.1L980.59,317.06L993.16,254.97L1005.73,317.06L1018.3,441.17L1043.44,254.97L1056.02,348.1L1081.16,410.12L1093.73,317.06L1106.3,223.92L1118.87,223.92L1131.45,286.01L1144.02,441.17L1156.59,379.08L1169.16,410.12L1181.73,317.06L1194.3,161.91L1206.87,130.86L1219.45,223.92L1244.59,223.92L1257.16,286.01L1294.88,379.08" style="vector-effect: non-scaling-stroke; fill: none; stroke: rgb(221, 101, 182); stroke-opacity: 1; stroke-width: 3px; opacity: 1;"/></g><g class="points"/><g class="text"/></g><g class="trace scatter trace0c5455" style="stroke-miterlimit: 2; opacity: 1;"><g class="fills"/><g class="errorbars"/><g class="lines"><path class="js-line" d="M37.71,516.53L50.29,185.17L75.43,66.2L88,205.01L113.14,244.62L125.72,300.64L150.86,396.06L163.43,396.06L176,266.24L251.43,363.59L264,363.59L289.15,233.84L301.72,363.59L339.43,428.46L352.01,331.12L364.58,331.12L377.15,298.72L414.86,331.12L427.43,331.12L440.01,331.12L452.58,266.24L465.15,233.84L477.72,298.72L502.86,233.84L515.44,168.97L528.01,233.84L553.15,298.72L565.72,266.24L578.29,298.72L603.44,298.72L616.01,266.24L628.58,266.24L653.72,233.84L666.3,168.97L678.87,201.37L691.44,201.37L704.01,104.1L716.58,168.97L729.15,287.16L741.73,261.61L754.3,220.85L766.87,244.62L779.44,220.85L792.01,173.25L804.58,197.09L817.15,173.25L829.73,197.09L842.3,197.09L854.87,220.85L867.44,173.25L880.01,149.49L892.58,197.09L905.16,149.49L917.73,125.72L930.3,149.49L955.44,244.62L968.01,220.85L980.59,197.09L993.16,220.85L1005.73,149.49L1018.3,149.49L1030.87,149.49L1043.44,125.72L1081.16,125.72L1093.73,149.49L1106.3,173.25L1118.87,173.25L1131.45,125.72L1144.02,153.7L1156.59,185.17L1169.16,125.72L1181.73,125.72L1194.3,86.04L1206.87,86.04L1219.45,165.33L1244.59,224.85L1257.16,185.17L1269.73,185.17L1282.3,205.01L1294.88,185.17" style="vector-effect: non-scaling-stroke; fill: none; stroke: rgb(108, 159, 51); stroke-opacity: 1; stroke-width: 3px; opacity: 1;"/></g><g class="points"/><g class="text"/></g><g class="trace scatter trace33641a" style="stroke-miterlimit: 2; opacity: 1;"><g class="fills"/><g class="errorbars"/><g class="lines"><path class="js-line" d="M37.71,403.27L50.29,403.27L75.43,350.39L88,429.68L113.14,350.39L125.72,323.91L150.86,323.91L176,323.91L251.43,516.53L264,506.32L276.58,506.32L289.15,506.32L301.72,482.56L339.43,492.05L352.01,434.96L364.58,406.41L377.15,463.5L414.86,349.32L427.43,414.55L440.01,510.54L452.58,468.57L477.72,384.57L490.29,384.57L515.44,384.57L528.01,472.21L553.15,292.22L565.72,256.54L578.29,333.83L590.87,333.83L603.44,274.38L616.01,304.14L628.58,333.83L653.72,363.59L666.3,363.59L678.87,333.83L691.44,274.38L704.01,304.14L741.73,214.93L754.3,214.93L779.44,274.38L792.01,214.93L817.15,214.93L829.73,206.58L842.3,206.58L854.87,235.13L867.44,178.03L880.01,149.49L905.16,92.39L917.73,116.52L930.3,143.99L942.87,143.99L955.44,143.99L968.01,89.11L980.59,173.25L993.16,129.79L1005.73,173.25L1018.3,292.22L1030.87,244.62L1043.44,292.22L1056.02,315.99L1081.16,268.46L1093.73,339.82L1106.3,315.99L1118.87,315.99L1131.45,268.46L1144.02,339.82L1156.59,315.99L1194.3,244.62L1206.87,315.99L1244.59,387.36L1257.16,363.59L1269.73,411.19L1282.3,387.36L1294.88,363.59" style="vector-effect: non-scaling-stroke; fill: none; stroke: rgb(0, 154, 250); stroke-opacity: 1; stroke-width: 3px; opacity: 1;"/></g><g class="points"/><g class="text"/></g></g></g><g class="overplot"/><path class="xlines-above crisp" d="M26.82894138232721,692.3153980752406H1360.4199475065618" style="fill: none; stroke-width: 1px; stroke: rgb(0, 0, 0); stroke-opacity: 1;"/><path class="ylines-above crisp" d="M27.32894138232721,42.21237970253719V691.8153980752406" style="fill: none; stroke-width: 1px; stroke: rgb(0, 0, 0); stroke-opacity: 1;"/><g class="overlines-above"/><g class="xaxislayer-above"><path class="xtick ticks crisp" d="M0,691.8153980752406v-5" transform="translate(65.53894138232721,0)" style="stroke: rgb(0, 0, 0); stroke-opacity: 1; stroke-width: 1px;"/><path class="xtick ticks crisp" d="M0,691.8153980752406v-5" transform="translate(78.11894138232721,0)" style="stroke: rgb(0, 0, 0); stroke-opacity: 1; stroke-width: 1px;"/><path class="xtick ticks crisp" d="M0,691.8153980752406v-5" transform="translate(103.25894138232721,0)" style="stroke: rgb(0, 0, 0); stroke-opacity: 1; stroke-width: 1px;"/><path class="xtick ticks crisp" d="M0,691.8153980752406v-5" transform="translate(115.8289413823272,0)" style="stroke: rgb(0, 0, 0); stroke-opacity: 1; stroke-width: 1px;"/><path class="xtick ticks crisp" d="M0,691.8153980752406v-5" transform="translate(140.96894138232722,0)" style="stroke: rgb(0, 0, 0); stroke-opacity: 1; stroke-width: 1px;"/><path class="xtick ticks crisp" d="M0,691.8153980752406v-5" transform="translate(153.5489413823272,0)" style="stroke: rgb(0, 0, 0); stroke-opacity: 1; stroke-width: 1px;"/><path class="xtick ticks crisp" d="M0,691.8153980752406v-5" transform="translate(178.68894138232722,0)" style="stroke: rgb(0, 0, 0); stroke-opacity: 1; stroke-width: 1px;"/><path class="xtick ticks crisp" d="M0,691.8153980752406v-5" transform="translate(191.2589413823272,0)" style="stroke: rgb(0, 0, 0); stroke-opacity: 1; stroke-width: 1px;"/><path class="xtick ticks crisp" d="M0,691.8153980752406v-5" transform="translate(203.8289413823272,0)" style="stroke: rgb(0, 0, 0); stroke-opacity: 1; stroke-width: 1px;"/><path class="xtick ticks crisp" d="M0,691.8153980752406v-5" transform="translate(279.25894138232724,0)" style="stroke: rgb(0, 0, 0); stroke-opacity: 1; stroke-width: 1px;"/><path class="xtick ticks crisp" d="M0,691.8153980752406v-5" transform="translate(291.82894138232723,0)" style="stroke: rgb(0, 0, 0); stroke-opacity: 1; stroke-width: 1px;"/><path class="xtick ticks crisp" d="M0,691.8153980752406v-5" transform="translate(304.4089413823272,0)" style="stroke: rgb(0, 0, 0); stroke-opacity: 1; stroke-width: 1px;"/><path class="xtick ticks crisp" d="M0,691.8153980752406v-5" transform="translate(316.9789413823272,0)" style="stroke: rgb(0, 0, 0); stroke-opacity: 1; stroke-width: 1px;"/><path class="xtick ticks crisp" d="M0,691.8153980752406v-5" transform="translate(329.54894138232726,0)" style="stroke: rgb(0, 0, 0); stroke-opacity: 1; stroke-width: 1px;"/><path class="xtick ticks crisp" d="M0,691.8153980752406v-5" transform="translate(367.25894138232724,0)" style="stroke: rgb(0, 0, 0); stroke-opacity: 1; stroke-width: 1px;"/><path class="xtick ticks crisp" d="M0,691.8153980752406v-5" transform="translate(379.8389413823272,0)" style="stroke: rgb(0, 0, 0); stroke-opacity: 1; stroke-width: 1px;"/><path class="xtick ticks crisp" d="M0,691.8153980752406v-5" transform="translate(392.4089413823272,0)" style="stroke: rgb(0, 0, 0); stroke-opacity: 1; stroke-width: 1px;"/><path class="xtick ticks crisp" d="M0,691.8153980752406v-5" transform="translate(404.9789413823272,0)" style="stroke: rgb(0, 0, 0); stroke-opacity: 1; stroke-width: 1px;"/><path class="xtick ticks crisp" d="M0,691.8153980752406v-5" transform="translate(442.68894138232724,0)" style="stroke: rgb(0, 0, 0); stroke-opacity: 1; stroke-width: 1px;"/><path class="xtick ticks crisp" d="M0,691.8153980752406v-5" transform="translate(455.25894138232724,0)" style="stroke: rgb(0, 0, 0); stroke-opacity: 1; stroke-width: 1px;"/><path class="xtick ticks crisp" d="M0,691.8153980752406v-5" transform="translate(467.8389413823272,0)" style="stroke: rgb(0, 0, 0); stroke-opacity: 1; stroke-width: 1px;"/><path class="xtick ticks crisp" d="M0,691.8153980752406v-5" transform="translate(480.4089413823272,0)" style="stroke: rgb(0, 0, 0); stroke-opacity: 1; stroke-width: 1px;"/><path class="xtick ticks crisp" d="M0,691.8153980752406v-5" transform="translate(492.9789413823272,0)" style="stroke: rgb(0, 0, 0); stroke-opacity: 1; stroke-width: 1px;"/><path class="xtick ticks crisp" d="M0,691.8153980752406v-5" transform="translate(505.54894138232726,0)" style="stroke: rgb(0, 0, 0); stroke-opacity: 1; stroke-width: 1px;"/><path class="xtick ticks crisp" d="M0,691.8153980752406v-5" transform="translate(518.1189413823272,0)" style="stroke: rgb(0, 0, 0); stroke-opacity: 1; stroke-width: 1px;"/><path class="xtick ticks crisp" d="M0,691.8153980752406v-5" transform="translate(530.6889413823272,0)" style="stroke: rgb(0, 0, 0); stroke-opacity: 1; stroke-width: 1px;"/><path class="xtick ticks crisp" d="M0,691.8153980752406v-5" transform="translate(543.2689413823273,0)" style="stroke: rgb(0, 0, 0); stroke-opacity: 1; stroke-width: 1px;"/><path class="xtick ticks crisp" d="M0,691.8153980752406v-5" transform="translate(555.8389413823272,0)" style="stroke: rgb(0, 0, 0); stroke-opacity: 1; stroke-width: 1px;"/><path class="xtick ticks crisp" d="M0,691.8153980752406v-5" transform="translate(580.9789413823272,0)" style="stroke: rgb(0, 0, 0); stroke-opacity: 1; stroke-width: 1px;"/><path class="xtick ticks crisp" d="M0,691.8153980752406v-5" transform="translate(593.5489413823273,0)" style="stroke: rgb(0, 0, 0); stroke-opacity: 1; stroke-width: 1px;"/><path class="xtick ticks crisp" d="M0,691.8153980752406v-5" transform="translate(606.1189413823272,0)" style="stroke: rgb(0, 0, 0); stroke-opacity: 1; stroke-width: 1px;"/><path class="xtick ticks crisp" d="M0,691.8153980752406v-5" transform="translate(618.6989413823272,0)" style="stroke: rgb(0, 0, 0); stroke-opacity: 1; stroke-width: 1px;"/><path class="xtick ticks crisp" d="M0,691.8153980752406v-5" transform="translate(631.2689413823273,0)" style="stroke: rgb(0, 0, 0); stroke-opacity: 1; stroke-width: 1px;"/><path class="xtick ticks crisp" d="M0,691.8153980752406v-5" transform="translate(643.8389413823272,0)" style="stroke: rgb(0, 0, 0); stroke-opacity: 1; stroke-width: 1px;"/><path class="xtick ticks crisp" d="M0,691.8153980752406v-5" transform="translate(656.4089413823273,0)" style="stroke: rgb(0, 0, 0); stroke-opacity: 1; stroke-width: 1px;"/><path class="xtick ticks crisp" d="M0,691.8153980752406v-5" transform="translate(681.5489413823273,0)" style="stroke: rgb(0, 0, 0); stroke-opacity: 1; stroke-width: 1px;"/><path class="xtick ticks crisp" d="M0,691.8153980752406v-5" transform="translate(694.1289413823272,0)" style="stroke: rgb(0, 0, 0); stroke-opacity: 1; stroke-width: 1px;"/><path class="xtick ticks crisp" d="M0,691.8153980752406v-5" transform="translate(706.6989413823272,0)" style="stroke: rgb(0, 0, 0); stroke-opacity: 1; stroke-width: 1px;"/><path class="xtick ticks crisp" d="M0,691.8153980752406v-5" transform="translate(719.2689413823273,0)" style="stroke: rgb(0, 0, 0); stroke-opacity: 1; stroke-width: 1px;"/><path class="xtick ticks crisp" d="M0,691.8153980752406v-5" transform="translate(731.8389413823272,0)" style="stroke: rgb(0, 0, 0); stroke-opacity: 1; stroke-width: 1px;"/><path class="xtick ticks crisp" d="M0,691.8153980752406v-5" transform="translate(744.4089413823273,0)" style="stroke: rgb(0, 0, 0); stroke-opacity: 1; stroke-width: 1px;"/><path class="xtick ticks crisp" d="M0,691.8153980752406v-5" transform="translate(756.9789413823272,0)" style="stroke: rgb(0, 0, 0); stroke-opacity: 1; stroke-width: 1px;"/><path class="xtick ticks crisp" d="M0,691.8153980752406v-5" transform="translate(769.5589413823272,0)" style="stroke: rgb(0, 0, 0); stroke-opacity: 1; stroke-width: 1px;"/><path class="xtick ticks crisp" d="M0,691.8153980752406v-5" transform="translate(782.1289413823272,0)" style="stroke: rgb(0, 0, 0); stroke-opacity: 1; stroke-width: 1px;"/><path class="xtick ticks crisp" d="M0,691.8153980752406v-5" transform="translate(794.6989413823272,0)" style="stroke: rgb(0, 0, 0); stroke-opacity: 1; stroke-width: 1px;"/><path class="xtick ticks crisp" d="M0,691.8153980752406v-5" transform="translate(807.2689413823273,0)" style="stroke: rgb(0, 0, 0); stroke-opacity: 1; stroke-width: 1px;"/><path class="xtick ticks crisp" d="M0,691.8153980752406v-5" transform="translate(819.8389413823272,0)" style="stroke: rgb(0, 0, 0); stroke-opacity: 1; stroke-width: 1px;"/><path class="xtick ticks crisp" d="M0,691.8153980752406v-5" transform="translate(832.4089413823273,0)" style="stroke: rgb(0, 0, 0); stroke-opacity: 1; stroke-width: 1px;"/><path class="xtick ticks crisp" d="M0,691.8153980752406v-5" transform="translate(844.9789413823272,0)" style="stroke: rgb(0, 0, 0); stroke-opacity: 1; stroke-width: 1px;"/><path class="xtick ticks crisp" d="M0,691.8153980752406v-5" transform="translate(857.5589413823272,0)" style="stroke: rgb(0, 0, 0); stroke-opacity: 1; stroke-width: 1px;"/><path class="xtick ticks crisp" d="M0,691.8153980752406v-5" transform="translate(870.1289413823272,0)" style="stroke: rgb(0, 0, 0); stroke-opacity: 1; stroke-width: 1px;"/><path class="xtick ticks crisp" d="M0,691.8153980752406v-5" transform="translate(882.6989413823272,0)" style="stroke: rgb(0, 0, 0); stroke-opacity: 1; stroke-width: 1px;"/><path class="xtick ticks crisp" d="M0,691.8153980752406v-5" transform="translate(895.2689413823273,0)" style="stroke: rgb(0, 0, 0); stroke-opacity: 1; stroke-width: 1px;"/><path class="xtick ticks crisp" d="M0,691.8153980752406v-5" transform="translate(907.8389413823272,0)" style="stroke: rgb(0, 0, 0); stroke-opacity: 1; stroke-width: 1px;"/><path class="xtick ticks crisp" d="M0,691.8153980752406v-5" transform="translate(920.4089413823273,0)" style="stroke: rgb(0, 0, 0); stroke-opacity: 1; stroke-width: 1px;"/><path class="xtick ticks crisp" d="M0,691.8153980752406v-5" transform="translate(932.9889413823272,0)" style="stroke: rgb(0, 0, 0); stroke-opacity: 1; stroke-width: 1px;"/><path class="xtick ticks crisp" d="M0,691.8153980752406v-5" transform="translate(945.5589413823272,0)" style="stroke: rgb(0, 0, 0); stroke-opacity: 1; stroke-width: 1px;"/><path class="xtick ticks crisp" d="M0,691.8153980752406v-5" transform="translate(958.1289413823272,0)" style="stroke: rgb(0, 0, 0); stroke-opacity: 1; stroke-width: 1px;"/><path class="xtick ticks crisp" d="M0,691.8153980752406v-5" transform="translate(970.6989413823272,0)" style="stroke: rgb(0, 0, 0); stroke-opacity: 1; stroke-width: 1px;"/><path class="xtick ticks crisp" d="M0,691.8153980752406v-5" transform="translate(983.2689413823273,0)" style="stroke: rgb(0, 0, 0); stroke-opacity: 1; stroke-width: 1px;"/><path class="xtick ticks crisp" d="M0,691.8153980752406v-5" transform="translate(995.8389413823272,0)" style="stroke: rgb(0, 0, 0); stroke-opacity: 1; stroke-width: 1px;"/><path class="xtick ticks crisp" d="M0,691.8153980752406v-5" transform="translate(1008.4189413823273,0)" style="stroke: rgb(0, 0, 0); stroke-opacity: 1; stroke-width: 1px;"/><path class="xtick ticks crisp" d="M0,691.8153980752406v-5" transform="translate(1020.9889413823272,0)" style="stroke: rgb(0, 0, 0); stroke-opacity: 1; stroke-width: 1px;"/><path class="xtick ticks crisp" d="M0,691.8153980752406v-5" transform="translate(1033.5589413823272,0)" style="stroke: rgb(0, 0, 0); stroke-opacity: 1; stroke-width: 1px;"/><path class="xtick ticks crisp" d="M0,691.8153980752406v-5" transform="translate(1046.1289413823272,0)" style="stroke: rgb(0, 0, 0); stroke-opacity: 1; stroke-width: 1px;"/><path class="xtick ticks crisp" d="M0,691.8153980752406v-5" transform="translate(1058.6989413823271,0)" style="stroke: rgb(0, 0, 0); stroke-opacity: 1; stroke-width: 1px;"/><path class="xtick ticks crisp" d="M0,691.8153980752406v-5" transform="translate(1071.2689413823273,0)" style="stroke: rgb(0, 0, 0); stroke-opacity: 1; stroke-width: 1px;"/><path class="xtick ticks crisp" d="M0,691.8153980752406v-5" transform="translate(1083.8489413823272,0)" style="stroke: rgb(0, 0, 0); stroke-opacity: 1; stroke-width: 1px;"/><path class="xtick ticks crisp" d="M0,691.8153980752406v-5" transform="translate(1108.9889413823273,0)" style="stroke: rgb(0, 0, 0); stroke-opacity: 1; stroke-width: 1px;"/><path class="xtick ticks crisp" d="M0,691.8153980752406v-5" transform="translate(1121.5589413823272,0)" style="stroke: rgb(0, 0, 0); stroke-opacity: 1; stroke-width: 1px;"/><path class="xtick ticks crisp" d="M0,691.8153980752406v-5" transform="translate(1134.1289413823272,0)" style="stroke: rgb(0, 0, 0); stroke-opacity: 1; stroke-width: 1px;"/><path class="xtick ticks crisp" d="M0,691.8153980752406v-5" transform="translate(1146.6989413823271,0)" style="stroke: rgb(0, 0, 0); stroke-opacity: 1; stroke-width: 1px;"/><path class="xtick ticks crisp" d="M0,691.8153980752406v-5" transform="translate(1159.2789413823273,0)" style="stroke: rgb(0, 0, 0); stroke-opacity: 1; stroke-width: 1px;"/><path class="xtick ticks crisp" d="M0,691.8153980752406v-5" transform="translate(1171.8489413823272,0)" style="stroke: rgb(0, 0, 0); stroke-opacity: 1; stroke-width: 1px;"/><path class="xtick ticks crisp" d="M0,691.8153980752406v-5" transform="translate(1184.4189413823271,0)" style="stroke: rgb(0, 0, 0); stroke-opacity: 1; stroke-width: 1px;"/><path class="xtick ticks crisp" d="M0,691.8153980752406v-5" transform="translate(1196.9889413823273,0)" style="stroke: rgb(0, 0, 0); stroke-opacity: 1; stroke-width: 1px;"/><path class="xtick ticks crisp" d="M0,691.8153980752406v-5" transform="translate(1209.5589413823272,0)" style="stroke: rgb(0, 0, 0); stroke-opacity: 1; stroke-width: 1px;"/><path class="xtick ticks crisp" d="M0,691.8153980752406v-5" transform="translate(1222.1289413823272,0)" style="stroke: rgb(0, 0, 0); stroke-opacity: 1; stroke-width: 1px;"/><path class="xtick ticks crisp" d="M0,691.8153980752406v-5" transform="translate(1234.6989413823271,0)" style="stroke: rgb(0, 0, 0); stroke-opacity: 1; stroke-width: 1px;"/><path class="xtick ticks crisp" d="M0,691.8153980752406v-5" transform="translate(1247.2789413823273,0)" style="stroke: rgb(0, 0, 0); stroke-opacity: 1; stroke-width: 1px;"/><path class="xtick ticks crisp" d="M0,691.8153980752406v-5" transform="translate(1272.4189413823271,0)" style="stroke: rgb(0, 0, 0); stroke-opacity: 1; stroke-width: 1px;"/><path class="xtick ticks crisp" d="M0,691.8153980752406v-5" transform="translate(1284.9889413823273,0)" style="stroke: rgb(0, 0, 0); stroke-opacity: 1; stroke-width: 1px;"/><path class="xtick ticks crisp" d="M0,691.8153980752406v-5" transform="translate(1297.5589413823272,0)" style="stroke: rgb(0, 0, 0); stroke-opacity: 1; stroke-width: 1px;"/><path class="xtick ticks crisp" d="M0,691.8153980752406v-5" transform="translate(1310.1289413823272,0)" style="stroke: rgb(0, 0, 0); stroke-opacity: 1; stroke-width: 1px;"/><path class="xtick ticks crisp" d="M0,691.8153980752406v-5" transform="translate(1322.7089413823273,0)" style="stroke: rgb(0, 0, 0); stroke-opacity: 1; stroke-width: 1px;"/><g class="xtick"><text text-anchor="end" x="0" y="706.0153980752407" transform="translate(65.53894138232721,0) rotate(-90,0,700.5153980752407)" style="font-family: sans-serif; font-size: 11px; fill: rgb(0, 0, 0); fill-opacity: 1; white-space: pre;">2020-04-12</text></g><g class="xtick"><text text-anchor="end" x="0" y="706.0153980752407" transform="translate(78.11894138232721,0) rotate(-90,0,700.5153980752407)" style="font-family: sans-serif; font-size: 11px; fill: rgb(0, 0, 0); fill-opacity: 1; white-space: pre;">2020-04-13</text></g><g class="xtick"><text text-anchor="end" x="0" y="706.0153980752407" transform="translate(103.25894138232721,0) rotate(-90,0,700.5153980752407)" style="font-family: sans-serif; font-size: 11px; fill: rgb(0, 0, 0); fill-opacity: 1; white-space: pre;">2020-04-15</text></g><g class="xtick"><text text-anchor="end" x="0" y="706.0153980752407" transform="translate(115.8289413823272,0) rotate(-90,0,700.5153980752407)" style="font-family: sans-serif; font-size: 11px; fill: rgb(0, 0, 0); fill-opacity: 1; white-space: pre;">2020-04-16</text></g><g class="xtick"><text text-anchor="end" x="0" y="706.0153980752407" transform="translate(140.96894138232722,0) rotate(-90,0,700.5153980752407)" style="font-family: sans-serif; font-size: 11px; fill: rgb(0, 0, 0); fill-opacity: 1; white-space: pre;">2020-04-18</text></g><g class="xtick"><text text-anchor="end" x="0" y="706.0153980752407" transform="translate(153.5489413823272,0) rotate(-90,0,700.5153980752407)" style="font-family: sans-serif; font-size: 11px; fill: rgb(0, 0, 0); fill-opacity: 1; white-space: pre;">2020-04-19</text></g><g class="xtick"><text text-anchor="end" x="0" y="706.0153980752407" transform="translate(178.68894138232722,0) rotate(-90,0,700.5153980752407)" style="font-family: sans-serif; font-size: 11px; fill: rgb(0, 0, 0); fill-opacity: 1; white-space: pre;">2020-04-21</text></g><g class="xtick"><text text-anchor="end" x="0" y="706.0153980752407" transform="translate(191.2589413823272,0) rotate(-90,0,700.5153980752407)" style="font-family: sans-serif; font-size: 11px; fill: rgb(0, 0, 0); fill-opacity: 1; white-space: pre;">2020-04-22</text></g><g class="xtick"><text text-anchor="end" x="0" y="706.0153980752407" transform="translate(203.8289413823272,0) rotate(-90,0,700.5153980752407)" style="font-family: sans-serif; font-size: 11px; fill: rgb(0, 0, 0); fill-opacity: 1; white-space: pre;">2020-04-23</text></g><g class="xtick"><text text-anchor="end" x="0" y="706.0153980752407" transform="translate(279.25894138232724,0) rotate(-90,0,700.5153980752407)" style="font-family: sans-serif; font-size: 11px; fill: rgb(0, 0, 0); fill-opacity: 1; white-space: pre;">2020-04-29</text></g><g class="xtick"><text text-anchor="end" x="0" y="706.0153980752407" transform="translate(291.82894138232723,0) rotate(-90,0,700.5153980752407)" style="font-family: sans-serif; font-size: 11px; fill: rgb(0, 0, 0); fill-opacity: 1; white-space: pre;">2020-04-30</text></g><g class="xtick"><text text-anchor="end" x="0" y="706.0153980752407" transform="translate(304.4089413823272,0) rotate(-90,0,700.5153980752407)" style="font-family: sans-serif; font-size: 11px; fill: rgb(0, 0, 0); fill-opacity: 1; white-space: pre;">2020-05-01</text></g><g class="xtick"><text text-anchor="end" x="0" y="706.0153980752407" transform="translate(316.9789413823272,0) rotate(-90,0,700.5153980752407)" style="font-family: sans-serif; font-size: 11px; fill: rgb(0, 0, 0); fill-opacity: 1; white-space: pre;">2020-05-02</text></g><g class="xtick"><text text-anchor="end" x="0" y="706.0153980752407" transform="translate(329.54894138232726,0) rotate(-90,0,700.5153980752407)" style="font-family: sans-serif; font-size: 11px; fill: rgb(0, 0, 0); fill-opacity: 1; white-space: pre;">2020-05-03</text></g><g class="xtick"><text text-anchor="end" x="0" y="706.0153980752407" transform="translate(367.25894138232724,0) rotate(-90,0,700.5153980752407)" style="font-family: sans-serif; font-size: 11px; fill: rgb(0, 0, 0); fill-opacity: 1; white-space: pre;">2020-05-06</text></g><g class="xtick"><text text-anchor="end" x="0" y="706.0153980752407" transform="translate(379.8389413823272,0) rotate(-90,0,700.5153980752407)" style="font-family: sans-serif; font-size: 11px; fill: rgb(0, 0, 0); fill-opacity: 1; white-space: pre;">2020-05-07</text></g><g class="xtick"><text text-anchor="end" x="0" y="706.0153980752407" transform="translate(392.4089413823272,0) rotate(-90,0,700.5153980752407)" style="font-family: sans-serif; font-size: 11px; fill: rgb(0, 0, 0); fill-opacity: 1; white-space: pre;">2020-05-08</text></g><g class="xtick"><text text-anchor="end" x="0" y="706.0153980752407" transform="translate(404.9789413823272,0) rotate(-90,0,700.5153980752407)" style="font-family: sans-serif; font-size: 11px; fill: rgb(0, 0, 0); fill-opacity: 1; white-space: pre;">2020-05-09</text></g><g class="xtick"><text text-anchor="end" x="0" y="706.0153980752407" transform="translate(442.68894138232724,0) rotate(-90,0,700.5153980752407)" style="font-family: sans-serif; font-size: 11px; fill: rgb(0, 0, 0); fill-opacity: 1; white-space: pre;">2020-05-12</text></g><g class="xtick"><text text-anchor="end" x="0" y="706.0153980752407" transform="translate(455.25894138232724,0) rotate(-90,0,700.5153980752407)" style="font-family: sans-serif; font-size: 11px; fill: rgb(0, 0, 0); fill-opacity: 1; white-space: pre;">2020-05-13</text></g><g class="xtick"><text text-anchor="end" x="0" y="706.0153980752407" transform="translate(467.8389413823272,0) rotate(-90,0,700.5153980752407)" style="font-family: sans-serif; font-size: 11px; fill: rgb(0, 0, 0); fill-opacity: 1; white-space: pre;">2020-05-14</text></g><g class="xtick"><text text-anchor="end" x="0" y="706.0153980752407" transform="translate(480.4089413823272,0) rotate(-90,0,700.5153980752407)" style="font-family: sans-serif; font-size: 11px; fill: rgb(0, 0, 0); fill-opacity: 1; white-space: pre;">2020-05-15</text></g><g class="xtick"><text text-anchor="end" x="0" y="706.0153980752407" transform="translate(492.9789413823272,0) rotate(-90,0,700.5153980752407)" style="font-family: sans-serif; font-size: 11px; fill: rgb(0, 0, 0); fill-opacity: 1; white-space: pre;">2020-05-16</text></g><g class="xtick"><text text-anchor="end" x="0" y="706.0153980752407" transform="translate(505.54894138232726,0) rotate(-90,0,700.5153980752407)" style="font-family: sans-serif; font-size: 11px; fill: rgb(0, 0, 0); fill-opacity: 1; white-space: pre;">2020-05-17</text></g><g class="xtick"><text text-anchor="end" x="0" y="706.0153980752407" transform="translate(518.1189413823272,0) rotate(-90,0,700.5153980752407)" style="font-family: sans-serif; font-size: 11px; fill: rgb(0, 0, 0); fill-opacity: 1; white-space: pre;">2020-05-18</text></g><g class="xtick"><text text-anchor="end" x="0" y="706.0153980752407" transform="translate(530.6889413823272,0) rotate(-90,0,700.5153980752407)" style="font-family: sans-serif; font-size: 11px; fill: rgb(0, 0, 0); fill-opacity: 1; white-space: pre;">2020-05-19</text></g><g class="xtick"><text text-anchor="end" x="0" y="706.0153980752407" transform="translate(543.2689413823273,0) rotate(-90,0,700.5153980752407)" style="font-family: sans-serif; font-size: 11px; fill: rgb(0, 0, 0); fill-opacity: 1; white-space: pre;">2020-05-20</text></g><g class="xtick"><text text-anchor="end" x="0" y="706.0153980752407" transform="translate(555.8389413823272,0) rotate(-90,0,700.5153980752407)" style="font-family: sans-serif; font-size: 11px; fill: rgb(0, 0, 0); fill-opacity: 1; white-space: pre;">2020-05-21</text></g><g class="xtick"><text text-anchor="end" x="0" y="706.0153980752407" transform="translate(580.9789413823272,0) rotate(-90,0,700.5153980752407)" style="font-family: sans-serif; font-size: 11px; fill: rgb(0, 0, 0); fill-opacity: 1; white-space: pre;">2020-05-23</text></g><g class="xtick"><text text-anchor="end" x="0" y="706.0153980752407" transform="translate(593.5489413823273,0) rotate(-90,0,700.5153980752407)" style="font-family: sans-serif; font-size: 11px; fill: rgb(0, 0, 0); fill-opacity: 1; white-space: pre;">2020-05-24</text></g><g class="xtick"><text text-anchor="end" x="0" y="706.0153980752407" transform="translate(606.1189413823272,0) rotate(-90,0,700.5153980752407)" style="font-family: sans-serif; font-size: 11px; fill: rgb(0, 0, 0); fill-opacity: 1; white-space: pre;">2020-05-25</text></g><g class="xtick"><text text-anchor="end" x="0" y="706.0153980752407" transform="translate(618.6989413823272,0) rotate(-90,0,700.5153980752407)" style="font-family: sans-serif; font-size: 11px; fill: rgb(0, 0, 0); fill-opacity: 1; white-space: pre;">2020-05-26</text></g><g class="xtick"><text text-anchor="end" x="0" y="706.0153980752407" transform="translate(631.2689413823273,0) rotate(-90,0,700.5153980752407)" style="font-family: sans-serif; font-size: 11px; fill: rgb(0, 0, 0); fill-opacity: 1; white-space: pre;">2020-05-27</text></g><g class="xtick"><text text-anchor="end" x="0" y="706.0153980752407" transform="translate(643.8389413823272,0) rotate(-90,0,700.5153980752407)" style="font-family: sans-serif; font-size: 11px; fill: rgb(0, 0, 0); fill-opacity: 1; white-space: pre;">2020-05-28</text></g><g class="xtick"><text text-anchor="end" x="0" y="706.0153980752407" transform="translate(656.4089413823273,0) rotate(-90,0,700.5153980752407)" style="font-family: sans-serif; font-size: 11px; fill: rgb(0, 0, 0); fill-opacity: 1; white-space: pre;">2020-05-29</text></g><g class="xtick"><text text-anchor="end" x="0" y="706.0153980752407" transform="translate(681.5489413823273,0) rotate(-90,0,700.5153980752407)" style="font-family: sans-serif; font-size: 11px; fill: rgb(0, 0, 0); fill-opacity: 1; white-space: pre;">2020-05-31</text></g><g class="xtick"><text text-anchor="end" x="0" y="706.0153980752407" transform="translate(694.1289413823272,0) rotate(-90,0,700.5153980752407)" style="font-family: sans-serif; font-size: 11px; fill: rgb(0, 0, 0); fill-opacity: 1; white-space: pre;">2020-06-01</text></g><g class="xtick"><text text-anchor="end" x="0" y="706.0153980752407" transform="translate(706.6989413823272,0) rotate(-90,0,700.5153980752407)" style="font-family: sans-serif; font-size: 11px; fill: rgb(0, 0, 0); fill-opacity: 1; white-space: pre;">2020-06-02</text></g><g class="xtick"><text text-anchor="end" x="0" y="706.0153980752407" transform="translate(719.2689413823273,0) rotate(-90,0,700.5153980752407)" style="font-family: sans-serif; font-size: 11px; fill: rgb(0, 0, 0); fill-opacity: 1; white-space: pre;">2020-06-03</text></g><g class="xtick"><text text-anchor="end" x="0" y="706.0153980752407" transform="translate(731.8389413823272,0) rotate(-90,0,700.5153980752407)" style="font-family: sans-serif; font-size: 11px; fill: rgb(0, 0, 0); fill-opacity: 1; white-space: pre;">2020-06-04</text></g><g class="xtick"><text text-anchor="end" x="0" y="706.0153980752407" transform="translate(744.4089413823273,0) rotate(-90,0,700.5153980752407)" style="font-family: sans-serif; font-size: 11px; fill: rgb(0, 0, 0); fill-opacity: 1; white-space: pre;">2020-06-05</text></g><g class="xtick"><text text-anchor="end" x="0" y="706.0153980752407" transform="translate(756.9789413823272,0) rotate(-90,0,700.5153980752407)" style="font-family: sans-serif; font-size: 11px; fill: rgb(0, 0, 0); fill-opacity: 1; white-space: pre;">2020-06-06</text></g><g class="xtick"><text text-anchor="end" x="0" y="706.0153980752407" transform="translate(769.5589413823272,0) rotate(-90,0,700.5153980752407)" style="font-family: sans-serif; font-size: 11px; fill: rgb(0, 0, 0); fill-opacity: 1; white-space: pre;">2020-06-07</text></g><g class="xtick"><text text-anchor="end" x="0" y="706.0153980752407" transform="translate(782.1289413823272,0) rotate(-90,0,700.5153980752407)" style="font-family: sans-serif; font-size: 11px; fill: rgb(0, 0, 0); fill-opacity: 1; white-space: pre;">2020-06-08</text></g><g class="xtick"><text text-anchor="end" x="0" y="706.0153980752407" transform="translate(794.6989413823272,0) rotate(-90,0,700.5153980752407)" style="font-family: sans-serif; font-size: 11px; fill: rgb(0, 0, 0); fill-opacity: 1; white-space: pre;">2020-06-09</text></g><g class="xtick"><text text-anchor="end" x="0" y="706.0153980752407" transform="translate(807.2689413823273,0) rotate(-90,0,700.5153980752407)" style="font-family: sans-serif; font-size: 11px; fill: rgb(0, 0, 0); fill-opacity: 1; white-space: pre;">2020-06-10</text></g><g class="xtick"><text text-anchor="end" x="0" y="706.0153980752407" transform="translate(819.8389413823272,0) rotate(-90,0,700.5153980752407)" style="font-family: sans-serif; font-size: 11px; fill: rgb(0, 0, 0); fill-opacity: 1; white-space: pre;">2020-06-11</text></g><g class="xtick"><text text-anchor="end" x="0" y="706.0153980752407" transform="translate(832.4089413823273,0) rotate(-90,0,700.5153980752407)" style="font-family: sans-serif; font-size: 11px; fill: rgb(0, 0, 0); fill-opacity: 1; white-space: pre;">2020-06-12</text></g><g class="xtick"><text text-anchor="end" x="0" y="706.0153980752407" transform="translate(844.9789413823272,0) rotate(-90,0,700.5153980752407)" style="font-family: sans-serif; font-size: 11px; fill: rgb(0, 0, 0); fill-opacity: 1; white-space: pre;">2020-06-13</text></g><g class="xtick"><text text-anchor="end" x="0" y="706.0153980752407" transform="translate(857.5589413823272,0) rotate(-90,0,700.5153980752407)" style="font-family: sans-serif; font-size: 11px; fill: rgb(0, 0, 0); fill-opacity: 1; white-space: pre;">2020-06-14</text></g><g class="xtick"><text text-anchor="end" x="0" y="706.0153980752407" transform="translate(870.1289413823272,0) rotate(-90,0,700.5153980752407)" style="font-family: sans-serif; font-size: 11px; fill: rgb(0, 0, 0); fill-opacity: 1; white-space: pre;">2020-06-15</text></g><g class="xtick"><text text-anchor="end" x="0" y="706.0153980752407" transform="translate(882.6989413823272,0) rotate(-90,0,700.5153980752407)" style="font-family: sans-serif; font-size: 11px; fill: rgb(0, 0, 0); fill-opacity: 1; white-space: pre;">2020-06-16</text></g><g class="xtick"><text text-anchor="end" x="0" y="706.0153980752407" transform="translate(895.2689413823273,0) rotate(-90,0,700.5153980752407)" style="font-family: sans-serif; font-size: 11px; fill: rgb(0, 0, 0); fill-opacity: 1; white-space: pre;">2020-06-17</text></g><g class="xtick"><text text-anchor="end" x="0" y="706.0153980752407" transform="translate(907.8389413823272,0) rotate(-90,0,700.5153980752407)" style="font-family: sans-serif; font-size: 11px; fill: rgb(0, 0, 0); fill-opacity: 1; white-space: pre;">2020-06-18</text></g><g class="xtick"><text text-anchor="end" x="0" y="706.0153980752407" transform="translate(920.4089413823273,0) rotate(-90,0,700.5153980752407)" style="font-family: sans-serif; font-size: 11px; fill: rgb(0, 0, 0); fill-opacity: 1; white-space: pre;">2020-06-19</text></g><g class="xtick"><text text-anchor="end" x="0" y="706.0153980752407" transform="translate(932.9889413823272,0) rotate(-90,0,700.5153980752407)" style="font-family: sans-serif; font-size: 11px; fill: rgb(0, 0, 0); fill-opacity: 1; white-space: pre;">2020-06-20</text></g><g class="xtick"><text text-anchor="end" x="0" y="706.0153980752407" transform="translate(945.5589413823272,0) rotate(-90,0,700.5153980752407)" style="font-family: sans-serif; font-size: 11px; fill: rgb(0, 0, 0); fill-opacity: 1; white-space: pre;">2020-06-21</text></g><g class="xtick"><text text-anchor="end" x="0" y="706.0153980752407" transform="translate(958.1289413823272,0) rotate(-90,0,700.5153980752407)" style="font-family: sans-serif; font-size: 11px; fill: rgb(0, 0, 0); fill-opacity: 1; white-space: pre;">2020-06-22</text></g><g class="xtick"><text text-anchor="end" x="0" y="706.0153980752407" transform="translate(970.6989413823272,0) rotate(-90,0,700.5153980752407)" style="font-family: sans-serif; font-size: 11px; fill: rgb(0, 0, 0); fill-opacity: 1; white-space: pre;">2020-06-23</text></g><g class="xtick"><text text-anchor="end" x="0" y="706.0153980752407" transform="translate(983.2689413823273,0) rotate(-90,0,700.5153980752407)" style="font-family: sans-serif; font-size: 11px; fill: rgb(0, 0, 0); fill-opacity: 1; white-space: pre;">2020-06-24</text></g><g class="xtick"><text text-anchor="end" x="0" y="706.0153980752407" transform="translate(995.8389413823272,0) rotate(-90,0,700.5153980752407)" style="font-family: sans-serif; font-size: 11px; fill: rgb(0, 0, 0); fill-opacity: 1; white-space: pre;">2020-06-25</text></g><g class="xtick"><text text-anchor="end" x="0" y="706.0153980752407" transform="translate(1008.4189413823273,0) rotate(-90,0,700.5153980752407)" style="font-family: sans-serif; font-size: 11px; fill: rgb(0, 0, 0); fill-opacity: 1; white-space: pre;">2020-06-26</text></g><g class="xtick"><text text-anchor="end" x="0" y="706.0153980752407" transform="translate(1020.9889413823272,0) rotate(-90,0,700.5153980752407)" style="font-family: sans-serif; font-size: 11px; fill: rgb(0, 0, 0); fill-opacity: 1; white-space: pre;">2020-06-27</text></g><g class="xtick"><text text-anchor="end" x="0" y="706.0153980752407" transform="translate(1033.5589413823272,0) rotate(-90,0,700.5153980752407)" style="font-family: sans-serif; font-size: 11px; fill: rgb(0, 0, 0); fill-opacity: 1; white-space: pre;">2020-06-28</text></g><g class="xtick"><text text-anchor="end" x="0" y="706.0153980752407" transform="translate(1046.1289413823272,0) rotate(-90,0,700.5153980752407)" style="font-family: sans-serif; font-size: 11px; fill: rgb(0, 0, 0); fill-opacity: 1; white-space: pre;">2020-06-29</text></g><g class="xtick"><text text-anchor="end" x="0" y="706.0153980752407" transform="translate(1058.6989413823271,0) rotate(-90,0,700.5153980752407)" style="font-family: sans-serif; font-size: 11px; fill: rgb(0, 0, 0); fill-opacity: 1; white-space: pre;">2020-06-30</text></g><g class="xtick"><text text-anchor="end" x="0" y="706.0153980752407" transform="translate(1071.2689413823273,0) rotate(-90,0,700.5153980752407)" style="font-family: sans-serif; font-size: 11px; fill: rgb(0, 0, 0); fill-opacity: 1; white-space: pre;">2020-07-01</text></g><g class="xtick"><text text-anchor="end" x="0" y="706.0153980752407" transform="translate(1083.8489413823272,0) rotate(-90,0,700.5153980752407)" style="font-family: sans-serif; font-size: 11px; fill: rgb(0, 0, 0); fill-opacity: 1; white-space: pre;">2020-07-02</text></g><g class="xtick"><text text-anchor="end" x="0" y="706.0153980752407" transform="translate(1108.9889413823273,0) rotate(-90,0,700.5153980752407)" style="font-family: sans-serif; font-size: 11px; fill: rgb(0, 0, 0); fill-opacity: 1; white-space: pre;">2020-07-04</text></g><g class="xtick"><text text-anchor="end" x="0" y="706.0153980752407" transform="translate(1121.5589413823272,0) rotate(-90,0,700.5153980752407)" style="font-family: sans-serif; font-size: 11px; fill: rgb(0, 0, 0); fill-opacity: 1; white-space: pre;">2020-07-05</text></g><g class="xtick"><text text-anchor="end" x="0" y="706.0153980752407" transform="translate(1134.1289413823272,0) rotate(-90,0,700.5153980752407)" style="font-family: sans-serif; font-size: 11px; fill: rgb(0, 0, 0); fill-opacity: 1; white-space: pre;">2020-07-06</text></g><g class="xtick"><text text-anchor="end" x="0" y="706.0153980752407" transform="translate(1146.6989413823271,0) rotate(-90,0,700.5153980752407)" style="font-family: sans-serif; font-size: 11px; fill: rgb(0, 0, 0); fill-opacity: 1; white-space: pre;">2020-07-07</text></g><g class="xtick"><text text-anchor="end" x="0" y="706.0153980752407" transform="translate(1159.2789413823273,0) rotate(-90,0,700.5153980752407)" style="font-family: sans-serif; font-size: 11px; fill: rgb(0, 0, 0); fill-opacity: 1; white-space: pre;">2020-07-08</text></g><g class="xtick"><text text-anchor="end" x="0" y="706.0153980752407" transform="translate(1171.8489413823272,0) rotate(-90,0,700.5153980752407)" style="font-family: sans-serif; font-size: 11px; fill: rgb(0, 0, 0); fill-opacity: 1; white-space: pre;">2020-07-09</text></g><g class="xtick"><text text-anchor="end" x="0" y="706.0153980752407" transform="translate(1184.4189413823271,0) rotate(-90,0,700.5153980752407)" style="font-family: sans-serif; font-size: 11px; fill: rgb(0, 0, 0); fill-opacity: 1; white-space: pre;">2020-07-10</text></g><g class="xtick"><text text-anchor="end" x="0" y="706.0153980752407" transform="translate(1196.9889413823273,0) rotate(-90,0,700.5153980752407)" style="font-family: sans-serif; font-size: 11px; fill: rgb(0, 0, 0); fill-opacity: 1; white-space: pre;">2020-07-11</text></g><g class="xtick"><text text-anchor="end" x="0" y="706.0153980752407" transform="translate(1209.5589413823272,0) rotate(-90,0,700.5153980752407)" style="font-family: sans-serif; font-size: 11px; fill: rgb(0, 0, 0); fill-opacity: 1; white-space: pre;">2020-07-12</text></g><g class="xtick"><text text-anchor="end" x="0" y="706.0153980752407" transform="translate(1222.1289413823272,0) rotate(-90,0,700.5153980752407)" style="font-family: sans-serif; font-size: 11px; fill: rgb(0, 0, 0); fill-opacity: 1; white-space: pre;">2020-07-13</text></g><g class="xtick"><text text-anchor="end" x="0" y="706.0153980752407" transform="translate(1234.6989413823271,0) rotate(-90,0,700.5153980752407)" style="font-family: sans-serif; font-size: 11px; fill: rgb(0, 0, 0); fill-opacity: 1; white-space: pre;">2020-07-14</text></g><g class="xtick"><text text-anchor="end" x="0" y="706.0153980752407" transform="translate(1247.2789413823273,0) rotate(-90,0,700.5153980752407)" style="font-family: sans-serif; font-size: 11px; fill: rgb(0, 0, 0); fill-opacity: 1; white-space: pre;">2020-07-15</text></g><g class="xtick"><text text-anchor="end" x="0" y="706.0153980752407" transform="translate(1272.4189413823271,0) rotate(-90,0,700.5153980752407)" style="font-family: sans-serif; font-size: 11px; fill: rgb(0, 0, 0); fill-opacity: 1; white-space: pre;">2020-07-17</text></g><g class="xtick"><text text-anchor="end" x="0" y="706.0153980752407" transform="translate(1284.9889413823273,0) rotate(-90,0,700.5153980752407)" style="font-family: sans-serif; font-size: 11px; fill: rgb(0, 0, 0); fill-opacity: 1; white-space: pre;">2020-07-18</text></g><g class="xtick"><text text-anchor="end" x="0" y="706.0153980752407" transform="translate(1297.5589413823272,0) rotate(-90,0,700.5153980752407)" style="font-family: sans-serif; font-size: 11px; fill: rgb(0, 0, 0); fill-opacity: 1; white-space: pre;">2020-07-19</text></g><g class="xtick"><text text-anchor="end" x="0" y="706.0153980752407" transform="translate(1310.1289413823272,0) rotate(-90,0,700.5153980752407)" style="font-family: sans-serif; font-size: 11px; fill: rgb(0, 0, 0); fill-opacity: 1; white-space: pre;">2020-07-20</text></g><g class="xtick"><text text-anchor="end" x="0" y="706.0153980752407" transform="translate(1322.7089413823273,0) rotate(-90,0,700.5153980752407)" style="font-family: sans-serif; font-size: 11px; fill: rgb(0, 0, 0); fill-opacity: 1; white-space: pre;">2020-07-21</text></g></g><g class="yaxislayer-above"><path class="ytick ticks crisp" d="M27.82894138232721,0h5" transform="translate(0,619.9023797025372)" style="stroke: rgb(0, 0, 0); stroke-opacity: 1; stroke-width: 1px;"/><path class="ytick ticks crisp" d="M27.82894138232721,0h5" transform="translate(0,477.17237970253717)" style="stroke: rgb(0, 0, 0); stroke-opacity: 1; stroke-width: 1px;"/><path class="ytick ticks crisp" d="M27.82894138232721,0h5" transform="translate(0,334.4323797025372)" style="stroke: rgb(0, 0, 0); stroke-opacity: 1; stroke-width: 1px;"/><path class="ytick ticks crisp" d="M27.82894138232721,0h5" transform="translate(0,191.7023797025372)" style="stroke: rgb(0, 0, 0); stroke-opacity: 1; stroke-width: 1px;"/><path class="ytick ticks crisp" d="M27.82894138232721,0h5" transform="translate(0,48.96237970253719)" style="stroke: rgb(0, 0, 0); stroke-opacity: 1; stroke-width: 1px;"/><g class="ytick"><text text-anchor="end" x="24.62894138232721" y="3.8499999999999996" transform="translate(0,619.9023797025372)" style="font-family: sans-serif; font-size: 11px; fill: rgb(0, 0, 0); fill-opacity: 1; white-space: pre;">20</text></g><g class="ytick"><text text-anchor="end" x="24.62894138232721" y="3.8499999999999996" transform="translate(0,477.17237970253717)" style="font-family: sans-serif; font-size: 11px; fill: rgb(0, 0, 0); fill-opacity: 1; white-space: pre;">40</text></g><g class="ytick"><text text-anchor="end" x="24.62894138232721" y="3.8499999999999996" transform="translate(0,334.4323797025372)" style="font-family: sans-serif; font-size: 11px; fill: rgb(0, 0, 0); fill-opacity: 1; white-space: pre;">60</text></g><g class="ytick"><text text-anchor="end" x="24.62894138232721" y="3.8499999999999996" transform="translate(0,191.7023797025372)" style="font-family: sans-serif; font-size: 11px; fill: rgb(0, 0, 0); fill-opacity: 1; white-space: pre;">80</text></g><g class="ytick"><text text-anchor="end" x="24.62894138232721" y="3.8499999999999996" transform="translate(0,48.96237970253719)" style="font-family: sans-serif; font-size: 11px; fill: rgb(0, 0, 0); fill-opacity: 1; white-space: pre;">100</text></g></g><g class="overaxes-above"/></g></g><g class="polarlayer"/><g class="ternarylayer"/><g class="geolayer"/><g class="funnelarealayer"/><g class="pielayer"/><g class="treemaplayer"/><g class="sunburstlayer"/><g class="glimages"/><defs id="topdefs-0d33f3"><g class="clips"/><clipPath id="legend0d33f3"><rect width="136" height="333" x="0" y="0"/></clipPath></defs><g class="layer-above"><g class="imagelayer"/><g class="shapelayer"/></g><g class="infolayer"><g class="legend" pointer-events="all" transform="translate(1364, 20)"><rect class="bg" shape-rendering="crispEdges" width="136" height="333" x="0" y="0" style="stroke: rgb(0, 0, 0); stroke-opacity: 1; fill: rgb(255, 255, 255); fill-opacity: 1; stroke-width: 0px;"/><g class="scrollbox" transform="translate(0, 0)" clip-path="url('#legend0d33f3')"><g class="groups" transform="translate(0, 0)"><g class="traces" transform="translate(0, 14.5)" style="opacity: 1;"><text class="legendtext user-select-none" text-anchor="start" x="40" y="4.29" style="font-family: sans-serif; font-size: 11px; fill: rgb(0, 0, 0); fill-opacity: 1; white-space: pre;">Nacional</text><g class="layers" style="opacity: 1;"><g class="legendfill"/><g class="legendlines"><path class="js-line" d="M5,0h30" style="fill: none; stroke: rgb(0, 154, 250); stroke-opacity: 1; stroke-width: 3px;"/></g><g class="legendsymbols"><g class="legendpoints"/></g></g><rect class="legendtoggle" pointer-events="all" x="0" y="-9.5" width="130.265625" height="19" style="cursor: pointer; fill: rgb(0, 0, 0); fill-opacity: 0;"/></g></g><g class="groups" transform="translate(0, 0)"><g class="traces" transform="translate(0, 33.5)" style="opacity: 1;"><text class="legendtext user-select-none" text-anchor="start" x="40" y="4.29" style="font-family: sans-serif; font-size: 11px; fill: rgb(0, 0, 0); fill-opacity: 1; white-space: pre;">Tarapac</text><g class="layers" style="opacity: 1;"><g class="legendfill"/><g class="legendlines"><path class="js-line" d="M5,0h30" style="fill: none; stroke: rgb(227, 111, 71); stroke-opacity: 1; stroke-width: 3px;"/></g><g class="legendsymbols"><g class="legendpoints"/></g></g><rect class="legendtoggle" pointer-events="all" x="0" y="-9.5" width="130.265625" height="19" style="cursor: pointer; fill: rgb(0, 0, 0); fill-opacity: 0;"/></g></g><g class="groups" transform="translate(0, 0)"><g class="traces" transform="translate(0, 52.5)" style="opacity: 1;"><text class="legendtext user-select-none" text-anchor="start" x="40" y="4.29" style="font-family: sans-serif; font-size: 11px; fill: rgb(0, 0, 0); fill-opacity: 1; white-space: pre;">Antofagasta</text><g class="layers" style="opacity: 1;"><g class="legendfill"/><g class="legendlines"><path class="js-line" d="M5,0h30" style="fill: none; stroke: rgb(62, 164, 78); stroke-opacity: 1; stroke-width: 3px;"/></g><g class="legendsymbols"><g class="legendpoints"/></g></g><rect class="legendtoggle" pointer-events="all" x="0" y="-9.5" width="130.265625" height="19" style="cursor: pointer; fill: rgb(0, 0, 0); fill-opacity: 0;"/></g></g><g class="groups" transform="translate(0, 0)"><g class="traces" transform="translate(0, 71.5)" style="opacity: 1;"><text class="legendtext user-select-none" text-anchor="start" x="40" y="4.29" style="font-family: sans-serif; font-size: 11px; fill: rgb(0, 0, 0); fill-opacity: 1; white-space: pre;">Atacama</text><g class="layers" style="opacity: 1;"><g class="legendfill"/><g class="legendlines"><path class="js-line" d="M5,0h30" style="fill: none; stroke: rgb(195, 113, 210); stroke-opacity: 1; stroke-width: 3px;"/></g><g class="legendsymbols"><g class="legendpoints"/></g></g><rect class="legendtoggle" pointer-events="all" x="0" y="-9.5" width="130.265625" height="19" style="cursor: pointer; fill: rgb(0, 0, 0); fill-opacity: 0;"/></g></g><g class="groups" transform="translate(0, 0)"><g class="traces" transform="translate(0, 90.5)" style="opacity: 1;"><text class="legendtext user-select-none" text-anchor="start" x="40" y="4.29" style="font-family: sans-serif; font-size: 11px; fill: rgb(0, 0, 0); fill-opacity: 1; white-space: pre;">Coquimbo</text><g class="layers" style="opacity: 1;"><g class="legendfill"/><g class="legendlines"><path class="js-line" d="M5,0h30" style="fill: none; stroke: rgb(172, 142, 24); stroke-opacity: 1; stroke-width: 3px;"/></g><g class="legendsymbols"><g class="legendpoints"/></g></g><rect class="legendtoggle" pointer-events="all" x="0" y="-9.5" width="130.265625" height="19" style="cursor: pointer; fill: rgb(0, 0, 0); fill-opacity: 0;"/></g></g><g class="groups" transform="translate(0, 0)"><g class="traces" transform="translate(0, 109.5)" style="opacity: 1;"><text class="legendtext user-select-none" text-anchor="start" x="40" y="4.29" style="font-family: sans-serif; font-size: 11px; fill: rgb(0, 0, 0); fill-opacity: 1; white-space: pre;">Valparaso</text><g class="layers" style="opacity: 1;"><g class="legendfill"/><g class="legendlines"><path class="js-line" d="M5,0h30" style="fill: none; stroke: rgb(0, 170, 174); stroke-opacity: 1; stroke-width: 3px;"/></g><g class="legendsymbols"><g class="legendpoints"/></g></g><rect class="legendtoggle" pointer-events="all" x="0" y="-9.5" width="130.265625" height="19" style="cursor: pointer; fill: rgb(0, 0, 0); fill-opacity: 0;"/></g></g><g class="groups" transform="translate(0, 0)"><g class="traces" transform="translate(0, 128.5)" style="opacity: 1;"><text class="legendtext user-select-none" text-anchor="start" x="40" y="4.29" style="font-family: sans-serif; font-size: 11px; fill: rgb(0, 0, 0); fill-opacity: 1; white-space: pre;">OHiggins</text><g class="layers" style="opacity: 1;"><g class="legendfill"/><g class="legendlines"><path class="js-line" d="M5,0h30" style="fill: none; stroke: rgb(237, 94, 147); stroke-opacity: 1; stroke-width: 3px;"/></g><g class="legendsymbols"><g class="legendpoints"/></g></g><rect class="legendtoggle" pointer-events="all" x="0" y="-9.5" width="130.265625" height="19" style="cursor: pointer; fill: rgb(0, 0, 0); fill-opacity: 0;"/></g></g><g class="groups" transform="translate(0, 0)"><g class="traces" transform="translate(0, 147.5)" style="opacity: 1;"><text class="legendtext user-select-none" text-anchor="start" x="40" y="4.29" style="font-family: sans-serif; font-size: 11px; fill: rgb(0, 0, 0); fill-opacity: 1; white-space: pre;">Maule</text><g class="layers" style="opacity: 1;"><g class="legendfill"/><g class="legendlines"><path class="js-line" d="M5,0h30" style="fill: none; stroke: rgb(198, 130, 37); stroke-opacity: 1; stroke-width: 3px;"/></g><g class="legendsymbols"><g class="legendpoints"/></g></g><rect class="legendtoggle" pointer-events="all" x="0" y="-9.5" width="130.265625" height="19" style="cursor: pointer; fill: rgb(0, 0, 0); fill-opacity: 0;"/></g></g><g class="groups" transform="translate(0, 0)"><g class="traces" transform="translate(0, 166.5)" style="opacity: 1;"><text class="legendtext user-select-none" text-anchor="start" x="40" y="4.29" style="font-family: sans-serif; font-size: 11px; fill: rgb(0, 0, 0); fill-opacity: 1; white-space: pre;">Bobo</text><g class="layers" style="opacity: 1;"><g class="legendfill"/><g class="legendlines"><path class="js-line" d="M5,0h30" style="fill: none; stroke: rgb(0, 169, 141); stroke-opacity: 1; stroke-width: 3px;"/></g><g class="legendsymbols"><g class="legendpoints"/></g></g><rect class="legendtoggle" pointer-events="all" x="0" y="-9.5" width="130.265625" height="19" style="cursor: pointer; fill: rgb(0, 0, 0); fill-opacity: 0;"/></g></g><g class="groups" transform="translate(0, 0)"><g class="traces" transform="translate(0, 185.5)" style="opacity: 1;"><text class="legendtext user-select-none" text-anchor="start" x="40" y="4.29" style="font-family: sans-serif; font-size: 11px; fill: rgb(0, 0, 0); fill-opacity: 1; white-space: pre;">Araucana</text><g class="layers" style="opacity: 1;"><g class="legendfill"/><g class="legendlines"><path class="js-line" d="M5,0h30" style="fill: none; stroke: rgb(142, 151, 30); stroke-opacity: 1; stroke-width: 3px;"/></g><g class="legendsymbols"><g class="legendpoints"/></g></g><rect class="legendtoggle" pointer-events="all" x="0" y="-9.5" width="130.265625" height="19" style="cursor: pointer; fill: rgb(0, 0, 0); fill-opacity: 0;"/></g></g><g class="groups" transform="translate(0, 0)"><g class="traces" transform="translate(0, 204.5)" style="opacity: 1;"><text class="legendtext user-select-none" text-anchor="start" x="40" y="4.29" style="font-family: sans-serif; font-size: 11px; fill: rgb(0, 0, 0); fill-opacity: 1; white-space: pre;">Los Lagos</text><g class="layers" style="opacity: 1;"><g class="legendfill"/><g class="legendlines"><path class="js-line" d="M5,0h30" style="fill: none; stroke: rgb(0, 169, 204); stroke-opacity: 1; stroke-width: 3px;"/></g><g class="legendsymbols"><g class="legendpoints"/></g></g><rect class="legendtoggle" pointer-events="all" x="0" y="-9.5" width="130.265625" height="19" style="cursor: pointer; fill: rgb(0, 0, 0); fill-opacity: 0;"/></g></g><g class="groups" transform="translate(0, 0)"><g class="traces" transform="translate(0, 223.5)" style="opacity: 1;"><text class="legendtext user-select-none" text-anchor="start" x="40" y="4.29" style="font-family: sans-serif; font-size: 11px; fill: rgb(0, 0, 0); fill-opacity: 1; white-space: pre;">Aysn</text><g class="layers" style="opacity: 1;"><g class="legendfill"/><g class="legendlines"><path class="js-line" d="M5,0h30" style="fill: none; stroke: rgb(155, 127, 233); stroke-opacity: 1; stroke-width: 3px;"/></g><g class="legendsymbols"><g class="legendpoints"/></g></g><rect class="legendtoggle" pointer-events="all" x="0" y="-9.5" width="130.265625" height="19" style="cursor: pointer; fill: rgb(0, 0, 0); fill-opacity: 0;"/></g></g><g class="groups" transform="translate(0, 0)"><g class="traces" transform="translate(0, 242.5)" style="opacity: 1;"><text class="legendtext user-select-none" text-anchor="start" x="40" y="4.29" style="font-family: sans-serif; font-size: 11px; fill: rgb(0, 0, 0); fill-opacity: 1; white-space: pre;">Magallanes</text><g class="layers" style="opacity: 1;"><g class="legendfill"/><g class="legendlines"><path class="js-line" d="M5,0h30" style="fill: none; stroke: rgb(97, 141, 246); stroke-opacity: 1; stroke-width: 3px;"/></g><g class="legendsymbols"><g class="legendpoints"/></g></g><rect class="legendtoggle" pointer-events="all" x="0" y="-9.5" width="130.265625" height="19" style="cursor: pointer; fill: rgb(0, 0, 0); fill-opacity: 0;"/></g></g><g class="groups" transform="translate(0, 0)"><g class="traces" transform="translate(0, 261.5)" style="opacity: 1;"><text class="legendtext user-select-none" text-anchor="start" x="40" y="4.29" style="font-family: sans-serif; font-size: 11px; fill: rgb(0, 0, 0); fill-opacity: 1; white-space: pre;">Metropolitana</text><g class="layers" style="opacity: 1;"><g class="legendfill"/><g class="legendlines"><path class="js-line" d="M5,0h30" style="fill: none; stroke: rgb(240, 96, 115); stroke-opacity: 1; stroke-width: 3px;"/></g><g class="legendsymbols"><g class="legendpoints"/></g></g><rect class="legendtoggle" pointer-events="all" x="0" y="-9.5" width="130.265625" height="19" style="cursor: pointer; fill: rgb(0, 0, 0); fill-opacity: 0;"/></g></g><g class="groups" transform="translate(0, 0)"><g class="traces" transform="translate(0, 280.5)" style="opacity: 1;"><text class="legendtext user-select-none" text-anchor="start" x="40" y="4.29" style="font-family: sans-serif; font-size: 11px; fill: rgb(0, 0, 0); fill-opacity: 1; white-space: pre;">Los Ros</text><g class="layers" style="opacity: 1;"><g class="legendfill"/><g class="legendlines"><path class="js-line" d="M5,0h30" style="fill: none; stroke: rgb(221, 101, 182); stroke-opacity: 1; stroke-width: 3px;"/></g><g class="legendsymbols"><g class="legendpoints"/></g></g><rect class="legendtoggle" pointer-events="all" x="0" y="-9.5" width="130.265625" height="19" style="cursor: pointer; fill: rgb(0, 0, 0); fill-opacity: 0;"/></g></g><g class="groups" transform="translate(0, 0)"><g class="traces" transform="translate(0, 299.5)" style="opacity: 1;"><text class="legendtext user-select-none" text-anchor="start" x="40" y="4.29" style="font-family: sans-serif; font-size: 11px; fill: rgb(0, 0, 0); fill-opacity: 1; white-space: pre;">Arica y Parinacota</text><g class="layers" style="opacity: 1;"><g class="legendfill"/><g class="legendlines"><path class="js-line" d="M5,0h30" style="fill: none; stroke: rgb(108, 159, 51); stroke-opacity: 1; stroke-width: 3px;"/></g><g class="legendsymbols"><g class="legendpoints"/></g></g><rect class="legendtoggle" pointer-events="all" x="0" y="-9.5" width="130.265625" height="19" style="cursor: pointer; fill: rgb(0, 0, 0); fill-opacity: 0;"/></g></g><g class="groups" transform="translate(0, 0)"><g class="traces" transform="translate(0, 318.5)" style="opacity: 1;"><text class="legendtext user-select-none" text-anchor="start" x="40" y="4.29" style="font-family: sans-serif; font-size: 11px; fill: rgb(0, 0, 0); fill-opacity: 1; white-space: pre;">uble</text><g class="layers" style="opacity: 1;"><g class="legendfill"/><g class="legendlines"><path class="js-line" d="M5,0h30" style="fill: none; stroke: rgb(0, 154, 250); stroke-opacity: 1; stroke-width: 3px;"/></g><g class="legendsymbols"><g class="legendpoints"/></g></g><rect class="legendtoggle" pointer-events="all" x="0" y="-9.5" width="130.265625" height="19" style="cursor: pointer; fill: rgb(0, 0, 0); fill-opacity: 0;"/></g></g></g><rect class="scrollbar" rx="20" ry="3" width="0" height="0" x="0" y="0" style="fill: rgb(128, 139, 164); fill-opacity: 1;"/></g><g class="g-gtitle"/><g class="g-xtitle"/><g class="g-ytitle"/><g class="annotation" data-index="0" style="opacity: 1;"><g class="annotation-text-g" transform="rotate(0,694.1244444444444,33.00000000000001)"><g class="cursor-pointer" transform="translate(559, 20)"><rect class="bg" x="0.5" y="0.5" width="270" height="25" style="stroke-width: 1px; stroke: rgb(0, 0, 0); stroke-opacity: 0; fill: rgb(0, 0, 0); fill-opacity: 0;"/><text class="annotation-text" text-anchor="middle" x="135.390625" y="20" style="font-family: sans-serif; font-size: 20px; fill: rgb(0, 0, 0); fill-opacity: 1; white-space: pre;">% Uso camas UCI por Regin</text></g></g></g></g></svg>