<svg class="main-svg" xmlns="http://www.w3.org/2000/svg" xmlns:xlink="http://www.w3.org/1999/xlink" width="1500" height="800" style="" viewBox="0 0 1500 800"><rect x="0" y="0" width="1500" height="800" style="fill: rgb(255, 255, 255); fill-opacity: 1;"/><defs id="defs-09d4c7"><g class="clips"><clipPath id="clip09d4c7xyplot" class="plotclip"><rect width="1465.459317585302" height="649.6030183727034"/></clipPath><clipPath class="axesclip" id="clip09d4c7x"><rect x="30.603674540682416" y="0" width="1465.459317585302" height="800"/></clipPath><clipPath class="axesclip" id="clip09d4c7y"><rect x="0" y="42.21237970253719" width="1500" height="649.6030183727034"/></clipPath><clipPath class="axesclip" id="clip09d4c7xy"><rect x="30.603674540682416" y="42.21237970253719" width="1465.459317585302" height="649.6030183727034"/></clipPath></g><g class="gradients"/></defs><g class="bglayer"/><g class="layer-below"><g class="imagelayer"/><g class="shapelayer"/></g><g class="cartesianlayer"><g class="subplot xy"><g class="layer-subplot"><g class="shapelayer"/><g class="imagelayer"/></g><g class="gridlayer"><g class="x"><path class="xgrid crisp" transform="translate(72.08367454068241,0)" d="M0,42.21237970253719v649.6030183727034" style="stroke: rgb(0, 0, 0); stroke-opacity: 0.1; stroke-width: 0.5px;"/><path class="xgrid crisp" transform="translate(93.68367454068242,0)" d="M0,42.21237970253719v649.6030183727034" style="stroke: rgb(0, 0, 0); stroke-opacity: 0.1; stroke-width: 0.5px;"/><path class="xgrid crisp" transform="translate(115.28367454068243,0)" d="M0,42.21237970253719v649.6030183727034" style="stroke: rgb(0, 0, 0); stroke-opacity: 0.1; stroke-width: 0.5px;"/><path class="xgrid crisp" transform="translate(136.88367454068242,0)" d="M0,42.21237970253719v649.6030183727034" style="stroke: rgb(0, 0, 0); stroke-opacity: 0.1; stroke-width: 0.5px;"/><path class="xgrid crisp" transform="translate(158.48367454068241,0)" d="M0,42.21237970253719v649.6030183727034" style="stroke: rgb(0, 0, 0); stroke-opacity: 0.1; stroke-width: 0.5px;"/><path class="xgrid crisp" transform="translate(180.0836745406824,0)" d="M0,42.21237970253719v649.6030183727034" style="stroke: rgb(0, 0, 0); stroke-opacity: 0.1; stroke-width: 0.5px;"/><path class="xgrid crisp" transform="translate(201.69367454068242,0)" d="M0,42.21237970253719v649.6030183727034" style="stroke: rgb(0, 0, 0); stroke-opacity: 0.1; stroke-width: 0.5px;"/><path class="xgrid crisp" transform="translate(223.29367454068242,0)" d="M0,42.21237970253719v649.6030183727034" style="stroke: rgb(0, 0, 0); stroke-opacity: 0.1; stroke-width: 0.5px;"/><path class="xgrid crisp" transform="translate(244.8936745406824,0)" d="M0,42.21237970253719v649.6030183727034" style="stroke: rgb(0, 0, 0); stroke-opacity: 0.1; stroke-width: 0.5px;"/><path class="xgrid crisp" transform="translate(266.4936745406824,0)" d="M0,42.21237970253719v649.6030183727034" style="stroke: rgb(0, 0, 0); stroke-opacity: 0.1; stroke-width: 0.5px;"/><path class="xgrid crisp" transform="translate(288.0936745406824,0)" d="M0,42.21237970253719v649.6030183727034" style="stroke: rgb(0, 0, 0); stroke-opacity: 0.1; stroke-width: 0.5px;"/><path class="xgrid crisp" transform="translate(309.69367454068237,0)" d="M0,42.21237970253719v649.6030183727034" style="stroke: rgb(0, 0, 0); stroke-opacity: 0.1; stroke-width: 0.5px;"/><path class="xgrid crisp" transform="translate(331.3036745406824,0)" d="M0,42.21237970253719v649.6030183727034" style="stroke: rgb(0, 0, 0); stroke-opacity: 0.1; stroke-width: 0.5px;"/><path class="xgrid crisp" transform="translate(352.9036745406824,0)" d="M0,42.21237970253719v649.6030183727034" style="stroke: rgb(0, 0, 0); stroke-opacity: 0.1; stroke-width: 0.5px;"/><path class="xgrid crisp" transform="translate(374.50367454068237,0)" d="M0,42.21237970253719v649.6030183727034" style="stroke: rgb(0, 0, 0); stroke-opacity: 0.1; stroke-width: 0.5px;"/><path class="xgrid crisp" transform="translate(396.1036745406824,0)" d="M0,42.21237970253719v649.6030183727034" style="stroke: rgb(0, 0, 0); stroke-opacity: 0.1; stroke-width: 0.5px;"/><path class="xgrid crisp" transform="translate(417.7036745406824,0)" d="M0,42.21237970253719v649.6030183727034" style="stroke: rgb(0, 0, 0); stroke-opacity: 0.1; stroke-width: 0.5px;"/><path class="xgrid crisp" transform="translate(439.3036745406824,0)" d="M0,42.21237970253719v649.6030183727034" style="stroke: rgb(0, 0, 0); stroke-opacity: 0.1; stroke-width: 0.5px;"/><path class="xgrid crisp" transform="translate(460.9136745406824,0)" d="M0,42.21237970253719v649.6030183727034" style="stroke: rgb(0, 0, 0); stroke-opacity: 0.1; stroke-width: 0.5px;"/><path class="xgrid crisp" transform="translate(482.5136745406824,0)" d="M0,42.21237970253719v649.6030183727034" style="stroke: rgb(0, 0, 0); stroke-opacity: 0.1; stroke-width: 0.5px;"/><path class="xgrid crisp" transform="translate(504.1136745406824,0)" d="M0,42.21237970253719v649.6030183727034" style="stroke: rgb(0, 0, 0); stroke-opacity: 0.1; stroke-width: 0.5px;"/><path class="xgrid crisp" transform="translate(525.7136745406824,0)" d="M0,42.21237970253719v649.6030183727034" style="stroke: rgb(0, 0, 0); stroke-opacity: 0.1; stroke-width: 0.5px;"/><path class="xgrid crisp" transform="translate(547.3136745406824,0)" d="M0,42.21237970253719v649.6030183727034" style="stroke: rgb(0, 0, 0); stroke-opacity: 0.1; stroke-width: 0.5px;"/><path class="xgrid crisp" transform="translate(568.9136745406823,0)" d="M0,42.21237970253719v649.6030183727034" style="stroke: rgb(0, 0, 0); stroke-opacity: 0.1; stroke-width: 0.5px;"/><path class="xgrid crisp" transform="translate(590.5236745406824,0)" d="M0,42.21237970253719v649.6030183727034" style="stroke: rgb(0, 0, 0); stroke-opacity: 0.1; stroke-width: 0.5px;"/><path class="xgrid crisp" transform="translate(612.1236745406824,0)" d="M0,42.21237970253719v649.6030183727034" style="stroke: rgb(0, 0, 0); stroke-opacity: 0.1; stroke-width: 0.5px;"/><path class="xgrid crisp" transform="translate(633.7236745406824,0)" d="M0,42.21237970253719v649.6030183727034" style="stroke: rgb(0, 0, 0); stroke-opacity: 0.1; stroke-width: 0.5px;"/><path class="xgrid crisp" transform="translate(655.3236745406824,0)" d="M0,42.21237970253719v649.6030183727034" style="stroke: rgb(0, 0, 0); stroke-opacity: 0.1; stroke-width: 0.5px;"/><path class="xgrid crisp" transform="translate(676.9236745406824,0)" d="M0,42.21237970253719v649.6030183727034" style="stroke: rgb(0, 0, 0); stroke-opacity: 0.1; stroke-width: 0.5px;"/><path class="xgrid crisp" transform="translate(698.5236745406824,0)" d="M0,42.21237970253719v649.6030183727034" style="stroke: rgb(0, 0, 0); stroke-opacity: 0.1; stroke-width: 0.5px;"/><path class="xgrid crisp" transform="translate(720.1336745406824,0)" d="M0,42.21237970253719v649.6030183727034" style="stroke: rgb(0, 0, 0); stroke-opacity: 0.1; stroke-width: 0.5px;"/><path class="xgrid crisp" transform="translate(741.7336745406824,0)" d="M0,42.21237970253719v649.6030183727034" style="stroke: rgb(0, 0, 0); stroke-opacity: 0.1; stroke-width: 0.5px;"/><path class="xgrid crisp" transform="translate(763.3336745406824,0)" d="M0,42.21237970253719v649.6030183727034" style="stroke: rgb(0, 0, 0); stroke-opacity: 0.1; stroke-width: 0.5px;"/><path class="xgrid crisp" transform="translate(784.9336745406824,0)" d="M0,42.21237970253719v649.6030183727034" style="stroke: rgb(0, 0, 0); stroke-opacity: 0.1; stroke-width: 0.5px;"/><path class="xgrid crisp" transform="translate(806.5336745406823,0)" d="M0,42.21237970253719v649.6030183727034" style="stroke: rgb(0, 0, 0); stroke-opacity: 0.1; stroke-width: 0.5px;"/><path class="xgrid crisp" transform="translate(828.1336745406824,0)" d="M0,42.21237970253719v649.6030183727034" style="stroke: rgb(0, 0, 0); stroke-opacity: 0.1; stroke-width: 0.5px;"/><path class="xgrid crisp" transform="translate(849.7436745406824,0)" d="M0,42.21237970253719v649.6030183727034" style="stroke: rgb(0, 0, 0); stroke-opacity: 0.1; stroke-width: 0.5px;"/><path class="xgrid crisp" transform="translate(871.3436745406824,0)" d="M0,42.21237970253719v649.6030183727034" style="stroke: rgb(0, 0, 0); stroke-opacity: 0.1; stroke-width: 0.5px;"/><path class="xgrid crisp" transform="translate(892.9436745406824,0)" d="M0,42.21237970253719v649.6030183727034" style="stroke: rgb(0, 0, 0); stroke-opacity: 0.1; stroke-width: 0.5px;"/><path class="xgrid crisp" transform="translate(914.5436745406824,0)" d="M0,42.21237970253719v649.6030183727034" style="stroke: rgb(0, 0, 0); stroke-opacity: 0.1; stroke-width: 0.5px;"/><path class="xgrid crisp" transform="translate(936.1436745406824,0)" d="M0,42.21237970253719v649.6030183727034" style="stroke: rgb(0, 0, 0); stroke-opacity: 0.1; stroke-width: 0.5px;"/><path class="xgrid crisp" transform="translate(957.7436745406824,0)" d="M0,42.21237970253719v649.6030183727034" style="stroke: rgb(0, 0, 0); stroke-opacity: 0.1; stroke-width: 0.5px;"/><path class="xgrid crisp" transform="translate(979.3536745406824,0)" d="M0,42.21237970253719v649.6030183727034" style="stroke: rgb(0, 0, 0); stroke-opacity: 0.1; stroke-width: 0.5px;"/><path class="xgrid crisp" transform="translate(1000.9536745406824,0)" d="M0,42.21237970253719v649.6030183727034" style="stroke: rgb(0, 0, 0); stroke-opacity: 0.1; stroke-width: 0.5px;"/><path class="xgrid crisp" transform="translate(1022.5536745406824,0)" d="M0,42.21237970253719v649.6030183727034" style="stroke: rgb(0, 0, 0); stroke-opacity: 0.1; stroke-width: 0.5px;"/><path class="xgrid crisp" transform="translate(1044.1536745406825,0)" d="M0,42.21237970253719v649.6030183727034" style="stroke: rgb(0, 0, 0); stroke-opacity: 0.1; stroke-width: 0.5px;"/><path class="xgrid crisp" transform="translate(1065.7536745406826,0)" d="M0,42.21237970253719v649.6030183727034" style="stroke: rgb(0, 0, 0); stroke-opacity: 0.1; stroke-width: 0.5px;"/><path class="xgrid crisp" transform="translate(1087.3636745406825,0)" d="M0,42.21237970253719v649.6030183727034" style="stroke: rgb(0, 0, 0); stroke-opacity: 0.1; stroke-width: 0.5px;"/><path class="xgrid crisp" transform="translate(1108.9636745406824,0)" d="M0,42.21237970253719v649.6030183727034" style="stroke: rgb(0, 0, 0); stroke-opacity: 0.1; stroke-width: 0.5px;"/><path class="xgrid crisp" transform="translate(1130.5636745406825,0)" d="M0,42.21237970253719v649.6030183727034" style="stroke: rgb(0, 0, 0); stroke-opacity: 0.1; stroke-width: 0.5px;"/><path class="xgrid crisp" transform="translate(1152.1636745406825,0)" d="M0,42.21237970253719v649.6030183727034" style="stroke: rgb(0, 0, 0); stroke-opacity: 0.1; stroke-width: 0.5px;"/><path class="xgrid crisp" transform="translate(1173.7636745406826,0)" d="M0,42.21237970253719v649.6030183727034" style="stroke: rgb(0, 0, 0); stroke-opacity: 0.1; stroke-width: 0.5px;"/><path class="xgrid crisp" transform="translate(1195.3636745406825,0)" d="M0,42.21237970253719v649.6030183727034" style="stroke: rgb(0, 0, 0); stroke-opacity: 0.1; stroke-width: 0.5px;"/><path class="xgrid crisp" transform="translate(1216.9736745406824,0)" d="M0,42.21237970253719v649.6030183727034" style="stroke: rgb(0, 0, 0); stroke-opacity: 0.1; stroke-width: 0.5px;"/><path class="xgrid crisp" transform="translate(1238.5736745406825,0)" d="M0,42.21237970253719v649.6030183727034" style="stroke: rgb(0, 0, 0); stroke-opacity: 0.1; stroke-width: 0.5px;"/><path class="xgrid crisp" transform="translate(1260.1736745406824,0)" d="M0,42.21237970253719v649.6030183727034" style="stroke: rgb(0, 0, 0); stroke-opacity: 0.1; stroke-width: 0.5px;"/><path class="xgrid crisp" transform="translate(1281.7736745406826,0)" d="M0,42.21237970253719v649.6030183727034" style="stroke: rgb(0, 0, 0); stroke-opacity: 0.1; stroke-width: 0.5px;"/><path class="xgrid crisp" transform="translate(1303.3736745406825,0)" d="M0,42.21237970253719v649.6030183727034" style="stroke: rgb(0, 0, 0); stroke-opacity: 0.1; stroke-width: 0.5px;"/><path class="xgrid crisp" transform="translate(1324.9736745406824,0)" d="M0,42.21237970253719v649.6030183727034" style="stroke: rgb(0, 0, 0); stroke-opacity: 0.1; stroke-width: 0.5px;"/><path class="xgrid crisp" transform="translate(1346.5836745406825,0)" d="M0,42.21237970253719v649.6030183727034" style="stroke: rgb(0, 0, 0); stroke-opacity: 0.1; stroke-width: 0.5px;"/><path class="xgrid crisp" transform="translate(1368.1836745406824,0)" d="M0,42.21237970253719v649.6030183727034" style="stroke: rgb(0, 0, 0); stroke-opacity: 0.1; stroke-width: 0.5px;"/><path class="xgrid crisp" transform="translate(1389.7836745406826,0)" d="M0,42.21237970253719v649.6030183727034" style="stroke: rgb(0, 0, 0); stroke-opacity: 0.1; stroke-width: 0.5px;"/><path class="xgrid crisp" transform="translate(1411.3836745406825,0)" d="M0,42.21237970253719v649.6030183727034" style="stroke: rgb(0, 0, 0); stroke-opacity: 0.1; stroke-width: 0.5px;"/><path class="xgrid crisp" transform="translate(1432.9836745406826,0)" d="M0,42.21237970253719v649.6030183727034" style="stroke: rgb(0, 0, 0); stroke-opacity: 0.1; stroke-width: 0.5px;"/><path class="xgrid crisp" transform="translate(1454.5836745406825,0)" d="M0,42.21237970253719v649.6030183727034" style="stroke: rgb(0, 0, 0); stroke-opacity: 0.1; stroke-width: 0.5px;"/></g><g class="y"><path class="ygrid crisp" transform="translate(0,615.2523797025372)" d="M30.603674540682416,0h1465.459317585302" style="stroke: rgb(0, 0, 0); stroke-opacity: 0.1; stroke-width: 0.5px;"/><path class="ygrid crisp" transform="translate(0,518.2823797025371)" d="M30.603674540682416,0h1465.459317585302" style="stroke: rgb(0, 0, 0); stroke-opacity: 0.1; stroke-width: 0.5px;"/><path class="ygrid crisp" transform="translate(0,421.3123797025372)" d="M30.603674540682416,0h1465.459317585302" style="stroke: rgb(0, 0, 0); stroke-opacity: 0.1; stroke-width: 0.5px;"/><path class="ygrid crisp" transform="translate(0,324.3523797025372)" d="M30.603674540682416,0h1465.459317585302" style="stroke: rgb(0, 0, 0); stroke-opacity: 0.1; stroke-width: 0.5px;"/><path class="ygrid crisp" transform="translate(0,227.38237970253718)" d="M30.603674540682416,0h1465.459317585302" style="stroke: rgb(0, 0, 0); stroke-opacity: 0.1; stroke-width: 0.5px;"/><path class="ygrid crisp" transform="translate(0,130.41237970253718)" d="M30.603674540682416,0h1465.459317585302" style="stroke: rgb(0, 0, 0); stroke-opacity: 0.1; stroke-width: 0.5px;"/></g></g><g class="zerolinelayer"/><path class="xlines-below"/><path class="ylines-below"/><g class="overlines-below"/><g class="xaxislayer-below"/><g class="yaxislayer-below"/><g class="overaxes-below"/><g class="plot" transform="translate(30.603674540682416, 42.21237970253719)" clip-path="url('#clip09d4c7xyplot')"><g class="scatterlayer mlayer"><g class="trace scatter traceffeb6a" style="stroke-miterlimit: 2; opacity: 1;"><g class="fills"/><g class="errorbars"/><g class="lines"><path class="js-line" d="M41.48,596.31L63.08,557.52L84.68,542.01L106.28,534.25L127.88,507.1L149.48,419.83L171.09,361.65L192.69,369.41L214.29,346.13L235.89,357.77L257.49,351.95L279.09,332.56L300.7,276.32L322.3,286.01L343.9,284.08L365.5,227.83L387.1,181.29L408.7,165.78L430.31,274.38L451.91,161.9L473.51,196.8L495.11,97.9L516.71,121.17L538.31,119.23L559.92,130.87L581.52,72.69L603.12,123.11L624.72,115.35L646.32,18.38L667.92,90.14L689.53,111.47L711.13,109.53L732.73,134.75L754.33,192.93L775.93,183.23L797.53,132.81L819.14,183.23L840.74,187.11L862.34,225.89L883.94,198.74L905.54,249.17L927.14,241.41L948.75,247.23L970.35,241.41L991.95,239.47L1013.55,282.14L1035.15,322.86L1056.76,326.74L1078.36,355.83L1099.96,377.16L1121.56,394.62L1143.16,394.62L1164.76,406.25L1186.37,417.89L1207.97,417.89L1229.57,491.59L1251.17,509.04L1272.77,503.22L1294.37,505.16L1315.98,555.58L1337.58,576.92L1359.18,613.76L1380.78,604.07L1402.38,625.4L1423.98,631.22" style="vector-effect: non-scaling-stroke; fill: none; stroke: rgb(0, 154, 250); stroke-opacity: 1; stroke-width: 3px; opacity: 1;"/></g><g class="points"/><g class="text"/></g></g></g><g class="overplot"/><path class="xlines-above crisp" d="M29.603674540682416,692.3153980752406H1496.0629921259845" style="fill: none; stroke-width: 1px; stroke: rgb(0, 0, 0); stroke-opacity: 1;"/><path class="ylines-above crisp" d="M30.103674540682416,42.21237970253719V691.8153980752406" style="fill: none; stroke-width: 1px; stroke: rgb(0, 0, 0); stroke-opacity: 1;"/><g class="overlines-above"/><g class="xaxislayer-above"><path class="xtick ticks crisp" d="M0,691.8153980752406v-5" transform="translate(72.08367454068241,0)" style="stroke: rgb(0, 0, 0); stroke-opacity: 1; stroke-width: 1px;"/><path class="xtick ticks crisp" d="M0,691.8153980752406v-5" transform="translate(93.68367454068242,0)" style="stroke: rgb(0, 0, 0); stroke-opacity: 1; stroke-width: 1px;"/><path class="xtick ticks crisp" d="M0,691.8153980752406v-5" transform="translate(115.28367454068243,0)" style="stroke: rgb(0, 0, 0); stroke-opacity: 1; stroke-width: 1px;"/><path class="xtick ticks crisp" d="M0,691.8153980752406v-5" transform="translate(136.88367454068242,0)" style="stroke: rgb(0, 0, 0); stroke-opacity: 1; stroke-width: 1px;"/><path class="xtick ticks crisp" d="M0,691.8153980752406v-5" transform="translate(158.48367454068241,0)" style="stroke: rgb(0, 0, 0); stroke-opacity: 1; stroke-width: 1px;"/><path class="xtick ticks crisp" d="M0,691.8153980752406v-5" transform="translate(180.0836745406824,0)" style="stroke: rgb(0, 0, 0); stroke-opacity: 1; stroke-width: 1px;"/><path class="xtick ticks crisp" d="M0,691.8153980752406v-5" transform="translate(201.69367454068242,0)" style="stroke: rgb(0, 0, 0); stroke-opacity: 1; stroke-width: 1px;"/><path class="xtick ticks crisp" d="M0,691.8153980752406v-5" transform="translate(223.29367454068242,0)" style="stroke: rgb(0, 0, 0); stroke-opacity: 1; stroke-width: 1px;"/><path class="xtick ticks crisp" d="M0,691.8153980752406v-5" transform="translate(244.8936745406824,0)" style="stroke: rgb(0, 0, 0); stroke-opacity: 1; stroke-width: 1px;"/><path class="xtick ticks crisp" d="M0,691.8153980752406v-5" transform="translate(266.4936745406824,0)" style="stroke: rgb(0, 0, 0); stroke-opacity: 1; stroke-width: 1px;"/><path class="xtick ticks crisp" d="M0,691.8153980752406v-5" transform="translate(288.0936745406824,0)" style="stroke: rgb(0, 0, 0); stroke-opacity: 1; stroke-width: 1px;"/><path class="xtick ticks crisp" d="M0,691.8153980752406v-5" transform="translate(309.69367454068237,0)" style="stroke: rgb(0, 0, 0); stroke-opacity: 1; stroke-width: 1px;"/><path class="xtick ticks crisp" d="M0,691.8153980752406v-5" transform="translate(331.3036745406824,0)" style="stroke: rgb(0, 0, 0); stroke-opacity: 1; stroke-width: 1px;"/><path class="xtick ticks crisp" d="M0,691.8153980752406v-5" transform="translate(352.9036745406824,0)" style="stroke: rgb(0, 0, 0); stroke-opacity: 1; stroke-width: 1px;"/><path class="xtick ticks crisp" d="M0,691.8153980752406v-5" transform="translate(374.50367454068237,0)" style="stroke: rgb(0, 0, 0); stroke-opacity: 1; stroke-width: 1px;"/><path class="xtick ticks crisp" d="M0,691.8153980752406v-5" transform="translate(396.1036745406824,0)" style="stroke: rgb(0, 0, 0); stroke-opacity: 1; stroke-width: 1px;"/><path class="xtick ticks crisp" d="M0,691.8153980752406v-5" transform="translate(417.7036745406824,0)" style="stroke: rgb(0, 0, 0); stroke-opacity: 1; stroke-width: 1px;"/><path class="xtick ticks crisp" d="M0,691.8153980752406v-5" transform="translate(439.3036745406824,0)" style="stroke: rgb(0, 0, 0); stroke-opacity: 1; stroke-width: 1px;"/><path class="xtick ticks crisp" d="M0,691.8153980752406v-5" transform="translate(460.9136745406824,0)" style="stroke: rgb(0, 0, 0); stroke-opacity: 1; stroke-width: 1px;"/><path class="xtick ticks crisp" d="M0,691.8153980752406v-5" transform="translate(482.5136745406824,0)" style="stroke: rgb(0, 0, 0); stroke-opacity: 1; stroke-width: 1px;"/><path class="xtick ticks crisp" d="M0,691.8153980752406v-5" transform="translate(504.1136745406824,0)" style="stroke: rgb(0, 0, 0); stroke-opacity: 1; stroke-width: 1px;"/><path class="xtick ticks crisp" d="M0,691.8153980752406v-5" transform="translate(525.7136745406824,0)" style="stroke: rgb(0, 0, 0); stroke-opacity: 1; stroke-width: 1px;"/><path class="xtick ticks crisp" d="M0,691.8153980752406v-5" transform="translate(547.3136745406824,0)" style="stroke: rgb(0, 0, 0); stroke-opacity: 1; stroke-width: 1px;"/><path class="xtick ticks crisp" d="M0,691.8153980752406v-5" transform="translate(568.9136745406823,0)" style="stroke: rgb(0, 0, 0); stroke-opacity: 1; stroke-width: 1px;"/><path class="xtick ticks crisp" d="M0,691.8153980752406v-5" transform="translate(590.5236745406824,0)" style="stroke: rgb(0, 0, 0); stroke-opacity: 1; stroke-width: 1px;"/><path class="xtick ticks crisp" d="M0,691.8153980752406v-5" transform="translate(612.1236745406824,0)" style="stroke: rgb(0, 0, 0); stroke-opacity: 1; stroke-width: 1px;"/><path class="xtick ticks crisp" d="M0,691.8153980752406v-5" transform="translate(633.7236745406824,0)" style="stroke: rgb(0, 0, 0); stroke-opacity: 1; stroke-width: 1px;"/><path class="xtick ticks crisp" d="M0,691.8153980752406v-5" transform="translate(655.3236745406824,0)" style="stroke: rgb(0, 0, 0); stroke-opacity: 1; stroke-width: 1px;"/><path class="xtick ticks crisp" d="M0,691.8153980752406v-5" transform="translate(676.9236745406824,0)" style="stroke: rgb(0, 0, 0); stroke-opacity: 1; stroke-width: 1px;"/><path class="xtick ticks crisp" d="M0,691.8153980752406v-5" transform="translate(698.5236745406824,0)" style="stroke: rgb(0, 0, 0); stroke-opacity: 1; stroke-width: 1px;"/><path class="xtick ticks crisp" d="M0,691.8153980752406v-5" transform="translate(720.1336745406824,0)" style="stroke: rgb(0, 0, 0); stroke-opacity: 1; stroke-width: 1px;"/><path class="xtick ticks crisp" d="M0,691.8153980752406v-5" transform="translate(741.7336745406824,0)" style="stroke: rgb(0, 0, 0); stroke-opacity: 1; stroke-width: 1px;"/><path class="xtick ticks crisp" d="M0,691.8153980752406v-5" transform="translate(763.3336745406824,0)" style="stroke: rgb(0, 0, 0); stroke-opacity: 1; stroke-width: 1px;"/><path class="xtick ticks crisp" d="M0,691.8153980752406v-5" transform="translate(784.9336745406824,0)" style="stroke: rgb(0, 0, 0); stroke-opacity: 1; stroke-width: 1px;"/><path class="xtick ticks crisp" d="M0,691.8153980752406v-5" transform="translate(806.5336745406823,0)" style="stroke: rgb(0, 0, 0); stroke-opacity: 1; stroke-width: 1px;"/><path class="xtick ticks crisp" d="M0,691.8153980752406v-5" transform="translate(828.1336745406824,0)" style="stroke: rgb(0, 0, 0); stroke-opacity: 1; stroke-width: 1px;"/><path class="xtick ticks crisp" d="M0,691.8153980752406v-5" transform="translate(849.7436745406824,0)" style="stroke: rgb(0, 0, 0); stroke-opacity: 1; stroke-width: 1px;"/><path class="xtick ticks crisp" d="M0,691.8153980752406v-5" transform="translate(871.3436745406824,0)" style="stroke: rgb(0, 0, 0); stroke-opacity: 1; stroke-width: 1px;"/><path class="xtick ticks crisp" d="M0,691.8153980752406v-5" transform="translate(892.9436745406824,0)" style="stroke: rgb(0, 0, 0); stroke-opacity: 1; stroke-width: 1px;"/><path class="xtick ticks crisp" d="M0,691.8153980752406v-5" transform="translate(914.5436745406824,0)" style="stroke: rgb(0, 0, 0); stroke-opacity: 1; stroke-width: 1px;"/><path class="xtick ticks crisp" d="M0,691.8153980752406v-5" transform="translate(936.1436745406824,0)" style="stroke: rgb(0, 0, 0); stroke-opacity: 1; stroke-width: 1px;"/><path class="xtick ticks crisp" d="M0,691.8153980752406v-5" transform="translate(957.7436745406824,0)" style="stroke: rgb(0, 0, 0); stroke-opacity: 1; stroke-width: 1px;"/><path class="xtick ticks crisp" d="M0,691.8153980752406v-5" transform="translate(979.3536745406824,0)" style="stroke: rgb(0, 0, 0); stroke-opacity: 1; stroke-width: 1px;"/><path class="xtick ticks crisp" d="M0,691.8153980752406v-5" transform="translate(1000.9536745406824,0)" style="stroke: rgb(0, 0, 0); stroke-opacity: 1; stroke-width: 1px;"/><path class="xtick ticks crisp" d="M0,691.8153980752406v-5" transform="translate(1022.5536745406824,0)" style="stroke: rgb(0, 0, 0); stroke-opacity: 1; stroke-width: 1px;"/><path class="xtick ticks crisp" d="M0,691.8153980752406v-5" transform="translate(1044.1536745406825,0)" style="stroke: rgb(0, 0, 0); stroke-opacity: 1; stroke-width: 1px;"/><path class="xtick ticks crisp" d="M0,691.8153980752406v-5" transform="translate(1065.7536745406826,0)" style="stroke: rgb(0, 0, 0); stroke-opacity: 1; stroke-width: 1px;"/><path class="xtick ticks crisp" d="M0,691.8153980752406v-5" transform="translate(1087.3636745406825,0)" style="stroke: rgb(0, 0, 0); stroke-opacity: 1; stroke-width: 1px;"/><path class="xtick ticks crisp" d="M0,691.8153980752406v-5" transform="translate(1108.9636745406824,0)" style="stroke: rgb(0, 0, 0); stroke-opacity: 1; stroke-width: 1px;"/><path class="xtick ticks crisp" d="M0,691.8153980752406v-5" transform="translate(1130.5636745406825,0)" style="stroke: rgb(0, 0, 0); stroke-opacity: 1; stroke-width: 1px;"/><path class="xtick ticks crisp" d="M0,691.8153980752406v-5" transform="translate(1152.1636745406825,0)" style="stroke: rgb(0, 0, 0); stroke-opacity: 1; stroke-width: 1px;"/><path class="xtick ticks crisp" d="M0,691.8153980752406v-5" transform="translate(1173.7636745406826,0)" style="stroke: rgb(0, 0, 0); stroke-opacity: 1; stroke-width: 1px;"/><path class="xtick ticks crisp" d="M0,691.8153980752406v-5" transform="translate(1195.3636745406825,0)" style="stroke: rgb(0, 0, 0); stroke-opacity: 1; stroke-width: 1px;"/><path class="xtick ticks crisp" d="M0,691.8153980752406v-5" transform="translate(1216.9736745406824,0)" style="stroke: rgb(0, 0, 0); stroke-opacity: 1; stroke-width: 1px;"/><path class="xtick ticks crisp" d="M0,691.8153980752406v-5" transform="translate(1238.5736745406825,0)" style="stroke: rgb(0, 0, 0); stroke-opacity: 1; stroke-width: 1px;"/><path class="xtick ticks crisp" d="M0,691.8153980752406v-5" transform="translate(1260.1736745406824,0)" style="stroke: rgb(0, 0, 0); stroke-opacity: 1; stroke-width: 1px;"/><path class="xtick ticks crisp" d="M0,691.8153980752406v-5" transform="translate(1281.7736745406826,0)" style="stroke: rgb(0, 0, 0); stroke-opacity: 1; stroke-width: 1px;"/><path class="xtick ticks crisp" d="M0,691.8153980752406v-5" transform="translate(1303.3736745406825,0)" style="stroke: rgb(0, 0, 0); stroke-opacity: 1; stroke-width: 1px;"/><path class="xtick ticks crisp" d="M0,691.8153980752406v-5" transform="translate(1324.9736745406824,0)" style="stroke: rgb(0, 0, 0); stroke-opacity: 1; stroke-width: 1px;"/><path class="xtick ticks crisp" d="M0,691.8153980752406v-5" transform="translate(1346.5836745406825,0)" style="stroke: rgb(0, 0, 0); stroke-opacity: 1; stroke-width: 1px;"/><path class="xtick ticks crisp" d="M0,691.8153980752406v-5" transform="translate(1368.1836745406824,0)" style="stroke: rgb(0, 0, 0); stroke-opacity: 1; stroke-width: 1px;"/><path class="xtick ticks crisp" d="M0,691.8153980752406v-5" transform="translate(1389.7836745406826,0)" style="stroke: rgb(0, 0, 0); stroke-opacity: 1; stroke-width: 1px;"/><path class="xtick ticks crisp" d="M0,691.8153980752406v-5" transform="translate(1411.3836745406825,0)" style="stroke: rgb(0, 0, 0); stroke-opacity: 1; stroke-width: 1px;"/><path class="xtick ticks crisp" d="M0,691.8153980752406v-5" transform="translate(1432.9836745406826,0)" style="stroke: rgb(0, 0, 0); stroke-opacity: 1; stroke-width: 1px;"/><path class="xtick ticks crisp" d="M0,691.8153980752406v-5" transform="translate(1454.5836745406825,0)" style="stroke: rgb(0, 0, 0); stroke-opacity: 1; stroke-width: 1px;"/><g class="xtick"><text text-anchor="end" x="0" y="706.0153980752407" transform="translate(72.08367454068241,0) rotate(-90,0,700.5153980752407)" style="font-family: sans-serif; font-size: 11px; fill: rgb(0, 0, 0); fill-opacity: 1; white-space: pre;">2020-05-18</text></g><g class="xtick"><text text-anchor="end" x="0" y="706.0153980752407" transform="translate(93.68367454068242,0) rotate(-90,0,700.5153980752407)" style="font-family: sans-serif; font-size: 11px; fill: rgb(0, 0, 0); fill-opacity: 1; white-space: pre;">2020-05-19</text></g><g class="xtick"><text text-anchor="end" x="0" y="706.0153980752407" transform="translate(115.28367454068243,0) rotate(-90,0,700.5153980752407)" style="font-family: sans-serif; font-size: 11px; fill: rgb(0, 0, 0); fill-opacity: 1; white-space: pre;">2020-05-20</text></g><g class="xtick"><text text-anchor="end" x="0" y="706.0153980752407" transform="translate(136.88367454068242,0) rotate(-90,0,700.5153980752407)" style="font-family: sans-serif; font-size: 11px; fill: rgb(0, 0, 0); fill-opacity: 1; white-space: pre;">2020-05-21</text></g><g class="xtick"><text text-anchor="end" x="0" y="706.0153980752407" transform="translate(158.48367454068241,0) rotate(-90,0,700.5153980752407)" style="font-family: sans-serif; font-size: 11px; fill: rgb(0, 0, 0); fill-opacity: 1; white-space: pre;">2020-05-22</text></g><g class="xtick"><text text-anchor="end" x="0" y="706.0153980752407" transform="translate(180.0836745406824,0) rotate(-90,0,700.5153980752407)" style="font-family: sans-serif; font-size: 11px; fill: rgb(0, 0, 0); fill-opacity: 1; white-space: pre;">2020-05-23</text></g><g class="xtick"><text text-anchor="end" x="0" y="706.0153980752407" transform="translate(201.69367454068242,0) rotate(-90,0,700.5153980752407)" style="font-family: sans-serif; font-size: 11px; fill: rgb(0, 0, 0); fill-opacity: 1; white-space: pre;">2020-05-24</text></g><g class="xtick"><text text-anchor="end" x="0" y="706.0153980752407" transform="translate(223.29367454068242,0) rotate(-90,0,700.5153980752407)" style="font-family: sans-serif; font-size: 11px; fill: rgb(0, 0, 0); fill-opacity: 1; white-space: pre;">2020-05-25</text></g><g class="xtick"><text text-anchor="end" x="0" y="706.0153980752407" transform="translate(244.8936745406824,0) rotate(-90,0,700.5153980752407)" style="font-family: sans-serif; font-size: 11px; fill: rgb(0, 0, 0); fill-opacity: 1; white-space: pre;">2020-05-26</text></g><g class="xtick"><text text-anchor="end" x="0" y="706.0153980752407" transform="translate(266.4936745406824,0) rotate(-90,0,700.5153980752407)" style="font-family: sans-serif; font-size: 11px; fill: rgb(0, 0, 0); fill-opacity: 1; white-space: pre;">2020-05-27</text></g><g class="xtick"><text text-anchor="end" x="0" y="706.0153980752407" transform="translate(288.0936745406824,0) rotate(-90,0,700.5153980752407)" style="font-family: sans-serif; font-size: 11px; fill: rgb(0, 0, 0); fill-opacity: 1; white-space: pre;">2020-05-28</text></g><g class="xtick"><text text-anchor="end" x="0" y="706.0153980752407" transform="translate(309.69367454068237,0) rotate(-90,0,700.5153980752407)" style="font-family: sans-serif; font-size: 11px; fill: rgb(0, 0, 0); fill-opacity: 1; white-space: pre;">2020-05-29</text></g><g class="xtick"><text text-anchor="end" x="0" y="706.0153980752407" transform="translate(331.3036745406824,0) rotate(-90,0,700.5153980752407)" style="font-family: sans-serif; font-size: 11px; fill: rgb(0, 0, 0); fill-opacity: 1; white-space: pre;">2020-05-30</text></g><g class="xtick"><text text-anchor="end" x="0" y="706.0153980752407" transform="translate(352.9036745406824,0) rotate(-90,0,700.5153980752407)" style="font-family: sans-serif; font-size: 11px; fill: rgb(0, 0, 0); fill-opacity: 1; white-space: pre;">2020-05-31</text></g><g class="xtick"><text text-anchor="end" x="0" y="706.0153980752407" transform="translate(374.50367454068237,0) rotate(-90,0,700.5153980752407)" style="font-family: sans-serif; font-size: 11px; fill: rgb(0, 0, 0); fill-opacity: 1; white-space: pre;">2020-06-01</text></g><g class="xtick"><text text-anchor="end" x="0" y="706.0153980752407" transform="translate(396.1036745406824,0) rotate(-90,0,700.5153980752407)" style="font-family: sans-serif; font-size: 11px; fill: rgb(0, 0, 0); fill-opacity: 1; white-space: pre;">2020-06-02</text></g><g class="xtick"><text text-anchor="end" x="0" y="706.0153980752407" transform="translate(417.7036745406824,0) rotate(-90,0,700.5153980752407)" style="font-family: sans-serif; font-size: 11px; fill: rgb(0, 0, 0); fill-opacity: 1; white-space: pre;">2020-06-03</text></g><g class="xtick"><text text-anchor="end" x="0" y="706.0153980752407" transform="translate(439.3036745406824,0) rotate(-90,0,700.5153980752407)" style="font-family: sans-serif; font-size: 11px; fill: rgb(0, 0, 0); fill-opacity: 1; white-space: pre;">2020-06-04</text></g><g class="xtick"><text text-anchor="end" x="0" y="706.0153980752407" transform="translate(460.9136745406824,0) rotate(-90,0,700.5153980752407)" style="font-family: sans-serif; font-size: 11px; fill: rgb(0, 0, 0); fill-opacity: 1; white-space: pre;">2020-06-05</text></g><g class="xtick"><text text-anchor="end" x="0" y="706.0153980752407" transform="translate(482.5136745406824,0) rotate(-90,0,700.5153980752407)" style="font-family: sans-serif; font-size: 11px; fill: rgb(0, 0, 0); fill-opacity: 1; white-space: pre;">2020-06-06</text></g><g class="xtick"><text text-anchor="end" x="0" y="706.0153980752407" transform="translate(504.1136745406824,0) rotate(-90,0,700.5153980752407)" style="font-family: sans-serif; font-size: 11px; fill: rgb(0, 0, 0); fill-opacity: 1; white-space: pre;">2020-06-07</text></g><g class="xtick"><text text-anchor="end" x="0" y="706.0153980752407" transform="translate(525.7136745406824,0) rotate(-90,0,700.5153980752407)" style="font-family: sans-serif; font-size: 11px; fill: rgb(0, 0, 0); fill-opacity: 1; white-space: pre;">2020-06-08</text></g><g class="xtick"><text text-anchor="end" x="0" y="706.0153980752407" transform="translate(547.3136745406824,0) rotate(-90,0,700.5153980752407)" style="font-family: sans-serif; font-size: 11px; fill: rgb(0, 0, 0); fill-opacity: 1; white-space: pre;">2020-06-09</text></g><g class="xtick"><text text-anchor="end" x="0" y="706.0153980752407" transform="translate(568.9136745406823,0) rotate(-90,0,700.5153980752407)" style="font-family: sans-serif; font-size: 11px; fill: rgb(0, 0, 0); fill-opacity: 1; white-space: pre;">2020-06-10</text></g><g class="xtick"><text text-anchor="end" x="0" y="706.0153980752407" transform="translate(590.5236745406824,0) rotate(-90,0,700.5153980752407)" style="font-family: sans-serif; font-size: 11px; fill: rgb(0, 0, 0); fill-opacity: 1; white-space: pre;">2020-06-11</text></g><g class="xtick"><text text-anchor="end" x="0" y="706.0153980752407" transform="translate(612.1236745406824,0) rotate(-90,0,700.5153980752407)" style="font-family: sans-serif; font-size: 11px; fill: rgb(0, 0, 0); fill-opacity: 1; white-space: pre;">2020-06-12</text></g><g class="xtick"><text text-anchor="end" x="0" y="706.0153980752407" transform="translate(633.7236745406824,0) rotate(-90,0,700.5153980752407)" style="font-family: sans-serif; font-size: 11px; fill: rgb(0, 0, 0); fill-opacity: 1; white-space: pre;">2020-06-13</text></g><g class="xtick"><text text-anchor="end" x="0" y="706.0153980752407" transform="translate(655.3236745406824,0) rotate(-90,0,700.5153980752407)" style="font-family: sans-serif; font-size: 11px; fill: rgb(0, 0, 0); fill-opacity: 1; white-space: pre;">2020-06-14</text></g><g class="xtick"><text text-anchor="end" x="0" y="706.0153980752407" transform="translate(676.9236745406824,0) rotate(-90,0,700.5153980752407)" style="font-family: sans-serif; font-size: 11px; fill: rgb(0, 0, 0); fill-opacity: 1; white-space: pre;">2020-06-15</text></g><g class="xtick"><text text-anchor="end" x="0" y="706.0153980752407" transform="translate(698.5236745406824,0) rotate(-90,0,700.5153980752407)" style="font-family: sans-serif; font-size: 11px; fill: rgb(0, 0, 0); fill-opacity: 1; white-space: pre;">2020-06-16</text></g><g class="xtick"><text text-anchor="end" x="0" y="706.0153980752407" transform="translate(720.1336745406824,0) rotate(-90,0,700.5153980752407)" style="font-family: sans-serif; font-size: 11px; fill: rgb(0, 0, 0); fill-opacity: 1; white-space: pre;">2020-06-17</text></g><g class="xtick"><text text-anchor="end" x="0" y="706.0153980752407" transform="translate(741.7336745406824,0) rotate(-90,0,700.5153980752407)" style="font-family: sans-serif; font-size: 11px; fill: rgb(0, 0, 0); fill-opacity: 1; white-space: pre;">2020-06-18</text></g><g class="xtick"><text text-anchor="end" x="0" y="706.0153980752407" transform="translate(763.3336745406824,0) rotate(-90,0,700.5153980752407)" style="font-family: sans-serif; font-size: 11px; fill: rgb(0, 0, 0); fill-opacity: 1; white-space: pre;">2020-06-19</text></g><g class="xtick"><text text-anchor="end" x="0" y="706.0153980752407" transform="translate(784.9336745406824,0) rotate(-90,0,700.5153980752407)" style="font-family: sans-serif; font-size: 11px; fill: rgb(0, 0, 0); fill-opacity: 1; white-space: pre;">2020-06-20</text></g><g class="xtick"><text text-anchor="end" x="0" y="706.0153980752407" transform="translate(806.5336745406823,0) rotate(-90,0,700.5153980752407)" style="font-family: sans-serif; font-size: 11px; fill: rgb(0, 0, 0); fill-opacity: 1; white-space: pre;">2020-06-21</text></g><g class="xtick"><text text-anchor="end" x="0" y="706.0153980752407" transform="translate(828.1336745406824,0) rotate(-90,0,700.5153980752407)" style="font-family: sans-serif; font-size: 11px; fill: rgb(0, 0, 0); fill-opacity: 1; white-space: pre;">2020-06-22</text></g><g class="xtick"><text text-anchor="end" x="0" y="706.0153980752407" transform="translate(849.7436745406824,0) rotate(-90,0,700.5153980752407)" style="font-family: sans-serif; font-size: 11px; fill: rgb(0, 0, 0); fill-opacity: 1; white-space: pre;">2020-06-23</text></g><g class="xtick"><text text-anchor="end" x="0" y="706.0153980752407" transform="translate(871.3436745406824,0) rotate(-90,0,700.5153980752407)" style="font-family: sans-serif; font-size: 11px; fill: rgb(0, 0, 0); fill-opacity: 1; white-space: pre;">2020-06-24</text></g><g class="xtick"><text text-anchor="end" x="0" y="706.0153980752407" transform="translate(892.9436745406824,0) rotate(-90,0,700.5153980752407)" style="font-family: sans-serif; font-size: 11px; fill: rgb(0, 0, 0); fill-opacity: 1; white-space: pre;">2020-06-25</text></g><g class="xtick"><text text-anchor="end" x="0" y="706.0153980752407" transform="translate(914.5436745406824,0) rotate(-90,0,700.5153980752407)" style="font-family: sans-serif; font-size: 11px; fill: rgb(0, 0, 0); fill-opacity: 1; white-space: pre;">2020-06-26</text></g><g class="xtick"><text text-anchor="end" x="0" y="706.0153980752407" transform="translate(936.1436745406824,0) rotate(-90,0,700.5153980752407)" style="font-family: sans-serif; font-size: 11px; fill: rgb(0, 0, 0); fill-opacity: 1; white-space: pre;">2020-06-27</text></g><g class="xtick"><text text-anchor="end" x="0" y="706.0153980752407" transform="translate(957.7436745406824,0) rotate(-90,0,700.5153980752407)" style="font-family: sans-serif; font-size: 11px; fill: rgb(0, 0, 0); fill-opacity: 1; white-space: pre;">2020-06-28</text></g><g class="xtick"><text text-anchor="end" x="0" y="706.0153980752407" transform="translate(979.3536745406824,0) rotate(-90,0,700.5153980752407)" style="font-family: sans-serif; font-size: 11px; fill: rgb(0, 0, 0); fill-opacity: 1; white-space: pre;">2020-06-29</text></g><g class="xtick"><text text-anchor="end" x="0" y="706.0153980752407" transform="translate(1000.9536745406824,0) rotate(-90,0,700.5153980752407)" style="font-family: sans-serif; font-size: 11px; fill: rgb(0, 0, 0); fill-opacity: 1; white-space: pre;">2020-06-30</text></g><g class="xtick"><text text-anchor="end" x="0" y="706.0153980752407" transform="translate(1022.5536745406824,0) rotate(-90,0,700.5153980752407)" style="font-family: sans-serif; font-size: 11px; fill: rgb(0, 0, 0); fill-opacity: 1; white-space: pre;">2020-07-01</text></g><g class="xtick"><text text-anchor="end" x="0" y="706.0153980752407" transform="translate(1044.1536745406825,0) rotate(-90,0,700.5153980752407)" style="font-family: sans-serif; font-size: 11px; fill: rgb(0, 0, 0); fill-opacity: 1; white-space: pre;">2020-07-02</text></g><g class="xtick"><text text-anchor="end" x="0" y="706.0153980752407" transform="translate(1065.7536745406826,0) rotate(-90,0,700.5153980752407)" style="font-family: sans-serif; font-size: 11px; fill: rgb(0, 0, 0); fill-opacity: 1; white-space: pre;">2020-07-03</text></g><g class="xtick"><text text-anchor="end" x="0" y="706.0153980752407" transform="translate(1087.3636745406825,0) rotate(-90,0,700.5153980752407)" style="font-family: sans-serif; font-size: 11px; fill: rgb(0, 0, 0); fill-opacity: 1; white-space: pre;">2020-07-04</text></g><g class="xtick"><text text-anchor="end" x="0" y="706.0153980752407" transform="translate(1108.9636745406824,0) rotate(-90,0,700.5153980752407)" style="font-family: sans-serif; font-size: 11px; fill: rgb(0, 0, 0); fill-opacity: 1; white-space: pre;">2020-07-05</text></g><g class="xtick"><text text-anchor="end" x="0" y="706.0153980752407" transform="translate(1130.5636745406825,0) rotate(-90,0,700.5153980752407)" style="font-family: sans-serif; font-size: 11px; fill: rgb(0, 0, 0); fill-opacity: 1; white-space: pre;">2020-07-06</text></g><g class="xtick"><text text-anchor="end" x="0" y="706.0153980752407" transform="translate(1152.1636745406825,0) rotate(-90,0,700.5153980752407)" style="font-family: sans-serif; font-size: 11px; fill: rgb(0, 0, 0); fill-opacity: 1; white-space: pre;">2020-07-07</text></g><g class="xtick"><text text-anchor="end" x="0" y="706.0153980752407" transform="translate(1173.7636745406826,0) rotate(-90,0,700.5153980752407)" style="font-family: sans-serif; font-size: 11px; fill: rgb(0, 0, 0); fill-opacity: 1; white-space: pre;">2020-07-08</text></g><g class="xtick"><text text-anchor="end" x="0" y="706.0153980752407" transform="translate(1195.3636745406825,0) rotate(-90,0,700.5153980752407)" style="font-family: sans-serif; font-size: 11px; fill: rgb(0, 0, 0); fill-opacity: 1; white-space: pre;">2020-07-09</text></g><g class="xtick"><text text-anchor="end" x="0" y="706.0153980752407" transform="translate(1216.9736745406824,0) rotate(-90,0,700.5153980752407)" style="font-family: sans-serif; font-size: 11px; fill: rgb(0, 0, 0); fill-opacity: 1; white-space: pre;">2020-07-10</text></g><g class="xtick"><text text-anchor="end" x="0" y="706.0153980752407" transform="translate(1238.5736745406825,0) rotate(-90,0,700.5153980752407)" style="font-family: sans-serif; font-size: 11px; fill: rgb(0, 0, 0); fill-opacity: 1; white-space: pre;">2020-07-11</text></g><g class="xtick"><text text-anchor="end" x="0" y="706.0153980752407" transform="translate(1260.1736745406824,0) rotate(-90,0,700.5153980752407)" style="font-family: sans-serif; font-size: 11px; fill: rgb(0, 0, 0); fill-opacity: 1; white-space: pre;">2020-07-12</text></g><g class="xtick"><text text-anchor="end" x="0" y="706.0153980752407" transform="translate(1281.7736745406826,0) rotate(-90,0,700.5153980752407)" style="font-family: sans-serif; font-size: 11px; fill: rgb(0, 0, 0); fill-opacity: 1; white-space: pre;">2020-07-13</text></g><g class="xtick"><text text-anchor="end" x="0" y="706.0153980752407" transform="translate(1303.3736745406825,0) rotate(-90,0,700.5153980752407)" style="font-family: sans-serif; font-size: 11px; fill: rgb(0, 0, 0); fill-opacity: 1; white-space: pre;">2020-07-14</text></g><g class="xtick"><text text-anchor="end" x="0" y="706.0153980752407" transform="translate(1324.9736745406824,0) rotate(-90,0,700.5153980752407)" style="font-family: sans-serif; font-size: 11px; fill: rgb(0, 0, 0); fill-opacity: 1; white-space: pre;">2020-07-15</text></g><g class="xtick"><text text-anchor="end" x="0" y="706.0153980752407" transform="translate(1346.5836745406825,0) rotate(-90,0,700.5153980752407)" style="font-family: sans-serif; font-size: 11px; fill: rgb(0, 0, 0); fill-opacity: 1; white-space: pre;">2020-07-16</text></g><g class="xtick"><text text-anchor="end" x="0" y="706.0153980752407" transform="translate(1368.1836745406824,0) rotate(-90,0,700.5153980752407)" style="font-family: sans-serif; font-size: 11px; fill: rgb(0, 0, 0); fill-opacity: 1; white-space: pre;">2020-07-17</text></g><g class="xtick"><text text-anchor="end" x="0" y="706.0153980752407" transform="translate(1389.7836745406826,0) rotate(-90,0,700.5153980752407)" style="font-family: sans-serif; font-size: 11px; fill: rgb(0, 0, 0); fill-opacity: 1; white-space: pre;">2020-07-18</text></g><g class="xtick"><text text-anchor="end" x="0" y="706.0153980752407" transform="translate(1411.3836745406825,0) rotate(-90,0,700.5153980752407)" style="font-family: sans-serif; font-size: 11px; fill: rgb(0, 0, 0); fill-opacity: 1; white-space: pre;">2020-07-19</text></g><g class="xtick"><text text-anchor="end" x="0" y="706.0153980752407" transform="translate(1432.9836745406826,0) rotate(-90,0,700.5153980752407)" style="font-family: sans-serif; font-size: 11px; fill: rgb(0, 0, 0); fill-opacity: 1; white-space: pre;">2020-07-20</text></g><g class="xtick"><text text-anchor="end" x="0" y="706.0153980752407" transform="translate(1454.5836745406825,0) rotate(-90,0,700.5153980752407)" style="font-family: sans-serif; font-size: 11px; fill: rgb(0, 0, 0); fill-opacity: 1; white-space: pre;">2020-07-21</text></g></g><g class="yaxislayer-above"><path class="ytick ticks crisp" d="M30.603674540682416,0h5" transform="translate(0,615.2523797025372)" style="stroke: rgb(0, 0, 0); stroke-opacity: 1; stroke-width: 1px;"/><path class="ytick ticks crisp" d="M30.603674540682416,0h5" transform="translate(0,518.2823797025371)" style="stroke: rgb(0, 0, 0); stroke-opacity: 1; stroke-width: 1px;"/><path class="ytick ticks crisp" d="M30.603674540682416,0h5" transform="translate(0,421.3123797025372)" style="stroke: rgb(0, 0, 0); stroke-opacity: 1; stroke-width: 1px;"/><path class="ytick ticks crisp" d="M30.603674540682416,0h5" transform="translate(0,324.3523797025372)" style="stroke: rgb(0, 0, 0); stroke-opacity: 1; stroke-width: 1px;"/><path class="ytick ticks crisp" d="M30.603674540682416,0h5" transform="translate(0,227.38237970253718)" style="stroke: rgb(0, 0, 0); stroke-opacity: 1; stroke-width: 1px;"/><path class="ytick ticks crisp" d="M30.603674540682416,0h5" transform="translate(0,130.41237970253718)" style="stroke: rgb(0, 0, 0); stroke-opacity: 1; stroke-width: 1px;"/><g class="ytick"><text text-anchor="end" x="27.403674540682417" y="3.8499999999999996" transform="translate(0,615.2523797025372)" style="font-family: sans-serif; font-size: 11px; fill: rgb(0, 0, 0); fill-opacity: 1; white-space: pre;">100</text></g><g class="ytick"><text text-anchor="end" x="27.403674540682417" y="3.8499999999999996" transform="translate(0,518.2823797025371)" style="font-family: sans-serif; font-size: 11px; fill: rgb(0, 0, 0); fill-opacity: 1; white-space: pre;">150</text></g><g class="ytick"><text text-anchor="end" x="27.403674540682417" y="3.8499999999999996" transform="translate(0,421.3123797025372)" style="font-family: sans-serif; font-size: 11px; fill: rgb(0, 0, 0); fill-opacity: 1; white-space: pre;">200</text></g><g class="ytick"><text text-anchor="end" x="27.403674540682417" y="3.8499999999999996" transform="translate(0,324.3523797025372)" style="font-family: sans-serif; font-size: 11px; fill: rgb(0, 0, 0); fill-opacity: 1; white-space: pre;">250</text></g><g class="ytick"><text text-anchor="end" x="27.403674540682417" y="3.8499999999999996" transform="translate(0,227.38237970253718)" style="font-family: sans-serif; font-size: 11px; fill: rgb(0, 0, 0); fill-opacity: 1; white-space: pre;">300</text></g><g class="ytick"><text text-anchor="end" x="27.403674540682417" y="3.8499999999999996" transform="translate(0,130.41237970253718)" style="font-family: sans-serif; font-size: 11px; fill: rgb(0, 0, 0); fill-opacity: 1; white-space: pre;">350</text></g></g><g class="overaxes-above"/></g></g><g class="polarlayer"/><g class="ternarylayer"/><g class="geolayer"/><g class="funnelarealayer"/><g class="pielayer"/><g class="treemaplayer"/><g class="sunburstlayer"/><g class="glimages"/><defs id="topdefs-09d4c7"><g class="clips"/></defs><g class="layer-above"><g class="imagelayer"/><g class="shapelayer"/></g><g class="infolayer"><g class="g-gtitle"/><g class="g-xtitle"/><g class="g-ytitle"/><g class="annotation" data-index="0" style="opacity: 1;"><g class="annotation-text-g" transform="rotate(0,763.3333333333333,33.00000000000001)"><g class="cursor-pointer" transform="translate(665, 20)"><rect class="bg" x="0.5" y="0.5" width="195" height="25" style="stroke-width: 1px; stroke: rgb(0, 0, 0); stroke-opacity: 0; fill: rgb(0, 0, 0); fill-opacity: 0;"/><text class="annotation-text" text-anchor="middle" x="98.59375" y="20" style="font-family: sans-serif; font-size: 20px; fill: rgb(0, 0, 0); fill-opacity: 1; white-space: pre;">VMI fuera de UCI RM</text></g></g></g></g></svg>